<svg width="199" height="45" viewBox="0 0 199 45" fill="none" xmlns="http://www.w3.org/2000/svg">
<path fill-rule="evenodd" clip-rule="evenodd" d="M34.0497 6.03635L28.8197 1.05078L28.7798 1.10482C28.0896 1.95602 27.5453 2.9153 27.1737 3.94214C26.802 4.95547 26.6161 6.02284 26.6161 7.10372C26.6161 8.13056 26.802 9.14389 27.1737 10.0897C27.5188 10.9949 28.063 11.8056 28.7666 12.4811L28.8064 12.5216L34.0497 6.03635ZM4.28888 9.34655L9.51893 14.3321L4.27561 20.8174L4.23579 20.7769C3.54553 20.1148 3.00128 19.2907 2.65615 18.3989C2.28447 17.4397 2.09863 16.4263 2.09863 15.3995C2.09863 14.3186 2.29775 13.2512 2.65615 12.2379C3.02783 11.2111 3.57207 10.2518 4.26233 9.4006L4.28888 9.34655ZM4.28888 25.9516L9.51893 30.9372L4.27561 37.4225L4.23579 37.3819C3.54553 36.7199 3.00128 35.8957 2.65615 35.004C2.28447 34.0582 2.09863 33.0314 2.09863 32.0045C2.09863 30.9237 2.29775 29.8563 2.65615 28.843C3.02783 27.8161 3.5588 26.8568 4.24906 26.0057L4.28888 25.9516ZM17.6826 22.6414L12.4658 17.6558L12.4127 17.7099C11.7225 18.5611 11.1915 19.5204 10.8198 20.5472C10.4481 21.5605 10.2623 22.6279 10.2623 23.7088C10.2623 24.7356 10.4481 25.7489 10.8198 26.7082C11.1649 27.6135 11.7092 28.4241 12.3994 29.0862L12.4393 29.1267L17.6826 22.6414ZM20.6427 25.9516L25.8728 30.9372L20.6295 37.4225L20.5896 37.3819C19.8994 36.7199 19.3551 35.8957 18.9967 35.004C18.6251 34.0447 18.4259 33.0314 18.4392 32.0045C18.4392 30.9237 18.6383 29.8563 18.9967 28.843C19.3684 27.8161 19.9127 26.8568 20.5896 26.0057L20.6427 25.9516ZM34.0497 38.2466L28.8197 33.2611L28.7798 33.3151C28.0896 34.1663 27.5586 35.1256 27.1737 36.1524C26.802 37.1658 26.6161 38.2331 26.6161 39.314C26.6029 40.3409 26.802 41.3542 27.1737 42.3135C27.5188 43.2187 28.063 44.0294 28.7666 44.6914L28.8064 44.7319L34.0497 38.2466ZM20.6427 9.34655L25.8728 14.3321L20.6295 20.8174L20.5896 20.7769C19.8994 20.1148 19.3551 19.2907 18.9967 18.3989C18.6251 17.4397 18.4259 16.4263 18.4392 15.3995C18.4392 14.3186 18.6383 13.2512 18.9967 12.2379C19.3684 11.2111 19.9127 10.2518 20.5896 9.4006L20.6427 9.34655ZM37.0099 9.34655L42.2399 14.3321L36.9966 20.8174L36.9568 20.7769C36.2665 20.1148 35.7223 19.2907 35.3771 18.3989C35.0055 17.4397 34.8196 16.4263 34.8196 15.3995C34.8196 14.3186 35.0187 13.2512 35.3771 12.2379C35.7488 11.2111 36.2798 10.2518 36.9701 9.4006L37.0099 9.34655ZM34.0497 22.6414L28.8197 17.6558L28.7666 17.7099C28.0763 18.5611 27.5453 19.5204 27.1737 20.5472C26.802 21.5605 26.6161 22.6279 26.6161 23.7088C26.6029 24.7356 26.802 25.7489 27.1737 26.7082C27.5188 27.6135 28.063 28.4241 28.7666 29.0862L28.8064 29.1267L34.0497 22.6414ZM37.0099 25.9516L42.2399 30.9372L36.9966 37.4225L36.9568 37.3819C36.2665 36.7199 35.7223 35.8957 35.3771 35.004C35.0055 34.0582 34.8196 33.0314 34.8196 32.0045C34.8196 30.9237 35.0187 29.8563 35.3771 28.843C35.7488 27.8161 36.2798 26.8568 36.9701 26.0057L37.0099 25.9516ZM50.4036 22.6414L45.1735 17.6558L45.1337 17.7099C44.4434 18.5611 43.9125 19.5204 43.5408 20.5472C43.1691 21.5605 42.9833 22.6279 42.9833 23.7088C42.97 24.7356 43.1691 25.7489 43.5408 26.7082C43.8859 27.6135 44.4302 28.4241 45.1337 29.0862L45.1735 29.1267L50.4036 22.6414Z" fill="#75C3B9" fill-opacity="0.15"/>
<path fill-rule="evenodd" clip-rule="evenodd" d="M31.952 4.99922L33.8634 6.05308L28.8192 1.22964L26.9077 0.175781L31.952 4.99922ZM9.33265 14.3624L7.42116 13.3085L2.37695 8.48506L4.28844 9.53893L9.33265 14.3624ZM9.33265 30.9674L7.42116 29.9136L2.37695 25.0901L4.28844 26.144L9.33265 30.9674ZM15.5981 21.6043L17.5096 22.6581L12.4654 17.8347L10.5539 16.7808L15.5981 21.6043ZM25.6865 30.9674L23.775 29.9136L18.7308 25.0901L20.6423 26.144L25.6865 30.9674ZM31.952 37.223L33.8634 38.2769L28.8192 33.4534L26.9077 32.3996L31.952 37.223ZM25.6865 14.3624L23.775 13.3085L18.7308 8.48506L20.6423 9.53893L25.6865 14.3624ZM42.0537 14.3624L40.1422 13.3085L35.0979 8.48506L37.0094 9.53893L42.0537 14.3624ZM31.952 21.6043L33.8634 22.6581L28.8192 17.8347L26.9077 16.7808L31.952 21.6043ZM42.0537 30.9674L40.1422 29.9136L35.0979 25.0901L37.0094 26.144L42.0537 30.9674ZM48.3191 21.6043L50.2306 22.6581L45.1864 17.8347L43.2749 16.7808L48.3191 21.6043Z" fill="#2B4461"/>
<path fill-rule="evenodd" clip-rule="evenodd" d="M31.952 4.99922L33.8634 6.05308L28.8192 1.22964L26.9077 0.175781L31.952 4.99922ZM9.33265 14.3624L7.42116 13.3085L2.37695 8.48506L4.28844 9.53893L9.33265 14.3624ZM9.33265 30.9674L7.42116 29.9136L2.37695 25.0901L4.28844 26.144L9.33265 30.9674ZM15.5981 21.6043L17.5096 22.6581L12.4654 17.8347L10.5539 16.7808L15.5981 21.6043ZM25.6865 30.9674L23.775 29.9136L18.7308 25.0901L20.6423 26.144L25.6865 30.9674ZM31.952 37.223L33.8634 38.2769L28.8192 33.4534L26.9077 32.3996L31.952 37.223ZM25.6865 14.3624L23.775 13.3085L18.7308 8.48506L20.6423 9.53893L25.6865 14.3624ZM42.0537 14.3624L40.1422 13.3085L35.0979 8.48506L37.0094 9.53893L42.0537 14.3624ZM31.952 21.6043L33.8634 22.6581L28.8192 17.8347L26.9077 16.7808L31.952 21.6043ZM42.0537 30.9674L40.1422 29.9136L35.0979 25.0901L37.0094 26.144L42.0537 30.9674ZM48.3191 21.6043L50.2306 22.6581L45.1864 17.8347L43.2749 16.7808L48.3191 21.6043Z" fill="url(#paint0_linear_1602_15013)"/>
<path fill-rule="evenodd" clip-rule="evenodd" d="M26.8814 11.2652L28.7929 12.3191L33.8636 6.04995L31.9521 4.99609L26.8814 11.2652ZM4.26208 20.6284L2.35059 19.5745L7.42134 13.3054L9.33283 14.3592L4.26208 20.6284ZM4.26208 37.2334L2.35059 36.1795L7.42134 29.9104L9.33283 30.9643L4.26208 37.2334ZM10.5275 27.8703L12.439 28.9241L17.5098 22.655L15.5983 21.6011L10.5275 27.8703ZM20.6292 37.2334L18.7177 36.1795L23.7885 29.9104L25.7 30.9643L20.6292 37.2334ZM26.8814 43.4755L28.7929 44.5294L33.8636 38.2602L31.9521 37.2064L26.8814 43.4755ZM20.6292 20.6284L18.7177 19.5745L23.7885 13.3054L25.7 14.3592L20.6292 20.6284ZM36.9831 20.6284L35.0716 19.5745L40.1423 13.3054L42.0538 14.3592L36.9831 20.6284ZM26.8814 27.8703L28.7929 28.9241L33.8636 22.655L31.9521 21.6011L26.8814 27.8703ZM36.9831 37.2334L35.0716 36.1795L40.1423 29.9104L42.0538 30.9643L36.9831 37.2334ZM43.2485 27.8703L45.16 28.9241L50.2308 22.655L48.3193 21.6011L43.2485 27.8703Z" fill="url(#paint1_linear_1602_15013)"/>
<path d="M20.6427 25.9534L25.8728 30.939L20.6295 37.4243L20.5896 37.3837C19.8994 36.7217 19.3551 35.8975 18.9967 35.0058C18.6251 34.0465 18.4259 33.0332 18.4392 32.0063C18.4392 30.9255 18.6383 29.8581 18.9967 28.8448C19.3684 27.8179 19.9127 26.8586 20.5896 26.0074L20.6427 25.9534ZM19.1029 34.9382C19.4348 35.8029 19.9525 36.5866 20.6162 37.2351L25.6869 30.9795L20.6427 26.1561C19.9923 26.9667 19.4746 27.899 19.1162 28.8853C18.7578 29.8851 18.5587 30.9255 18.5587 31.9928C18.5454 32.9926 18.7313 33.9925 19.1029 34.9382ZM28.8197 33.2629L34.0497 38.2484L28.8064 44.7337L28.7666 44.6932C28.0763 44.0312 27.5321 43.207 27.1737 42.3153C26.802 41.356 26.6161 40.3426 26.6161 39.3158C26.6161 38.2349 26.8153 37.1676 27.1737 36.1542C27.5453 35.1274 28.0896 34.1681 28.7798 33.3169L28.8197 33.2629ZM27.2799 42.2342C27.6117 43.0989 28.1294 43.8825 28.7931 44.5311L33.8639 38.2755L28.8197 33.452C28.1692 34.2762 27.6515 35.1949 27.2931 36.1812C26.9347 37.1811 26.7489 38.2214 26.7356 39.2888C26.7356 40.3021 26.9215 41.3019 27.2799 42.2342ZM4.28888 25.9534L9.51893 30.939L4.27561 37.4243L4.23579 37.3837C3.54553 36.7217 3.00128 35.8975 2.65615 35.0058C2.28447 34.0465 2.09863 33.0332 2.09863 32.0063C2.09863 30.9255 2.29775 29.8581 2.65615 28.8448C3.02783 27.8179 3.5588 26.8586 4.24906 26.0074L4.28888 25.9534ZM2.74907 34.9382C3.08093 35.8029 3.59862 36.5866 4.26233 37.2351L9.33309 30.9795L4.28888 26.1561C3.63844 26.9667 3.12075 27.899 2.76234 28.8853C2.40394 29.8851 2.20483 30.9255 2.20483 31.9928C2.19155 32.9926 2.37739 33.9925 2.74907 34.9382ZM4.28888 9.34835L9.51893 14.3339L4.27561 20.8192L4.23579 20.7787C3.54553 20.1166 3.00128 19.2925 2.65615 18.4007C2.28447 17.4415 2.09863 16.4281 2.09863 15.4013C2.09863 14.3204 2.29775 13.253 2.65615 12.2397C3.02783 11.2129 3.57207 10.2536 4.26233 9.40239L4.28888 9.34835ZM2.74907 18.3332C3.0942 19.1979 3.6119 19.9815 4.27561 20.6301L9.34637 14.3744L4.30216 9.55101C3.65172 10.3752 3.13402 11.2939 2.77562 12.2937C2.41722 13.2936 2.2181 14.3339 2.2181 15.4013C2.19155 16.3876 2.37739 17.3874 2.74907 18.3332ZM12.4658 17.6441L17.6826 22.6297L12.4393 29.115L12.3994 29.0744C11.7092 28.4124 11.1649 27.5882 10.8198 26.6965C10.4481 25.7372 10.249 24.7239 10.2623 23.6971C10.2623 22.6162 10.4614 21.5488 10.8198 20.5355C11.1915 19.5086 11.7357 18.5494 12.4127 17.6982L12.4658 17.6441ZM10.926 26.629C11.2711 27.4937 11.7888 28.2773 12.4525 28.9258L17.5233 22.6702L12.4791 17.8468C11.8286 18.671 11.311 19.5897 10.9525 20.576C10.5941 21.5758 10.395 22.6162 10.395 23.6835C10.3685 24.6969 10.5543 25.6967 10.926 26.629ZM28.8197 1.03906L34.0497 6.02463L28.8064 12.5099L28.7666 12.4694C28.0763 11.8074 27.5321 10.9832 27.1737 10.0779C26.802 9.13217 26.6161 8.11884 26.6161 7.092C26.6161 6.01112 26.8153 4.94375 27.1737 3.93042C27.5453 2.90358 28.0896 1.93079 28.7798 1.09311L28.8197 1.03906ZM27.2799 10.0239C27.625 10.8886 28.1294 11.6722 28.7931 12.3208L33.8639 6.06516L28.8197 1.24173C28.1692 2.0659 27.6515 2.98465 27.2931 3.97096C26.9347 4.97077 26.7489 6.01112 26.7356 7.07849C26.7356 8.07831 26.9215 9.09164 27.2799 10.0239ZM37.0099 9.34835L42.2399 14.3339L36.9966 20.8192L36.9568 20.7787C36.2665 20.1166 35.7223 19.2925 35.3771 18.4007C35.0055 17.4415 34.8196 16.4281 34.8196 15.4013C34.8196 14.3204 35.0187 13.253 35.3771 12.2397C35.7488 11.2129 36.2798 10.2536 36.9701 9.40239L37.0099 9.34835ZM35.4568 18.3332C35.8019 19.1979 36.3196 19.9815 36.9833 20.6301L42.0541 14.3744L37.0099 9.55101C36.3594 10.3752 35.8417 11.2939 35.4833 12.2937C35.1249 13.2936 34.9258 14.3339 34.9258 15.4013C34.9125 16.3876 35.0984 17.3874 35.4568 18.3332ZM28.8197 17.6441L34.0497 22.6297L28.8064 29.115L28.7666 29.0744C28.0763 28.4124 27.5321 27.5882 27.1737 26.6965C26.802 25.7372 26.6161 24.7239 26.6161 23.6971C26.6161 22.6162 26.8153 21.5488 27.1737 20.5355C27.5453 19.5086 28.0896 18.5494 28.7666 17.6982L28.8197 17.6441ZM27.2799 26.629C27.6117 27.4937 28.1294 28.2773 28.7931 28.9258L33.8639 22.6702L28.8197 17.8468C28.1692 18.671 27.6515 19.5897 27.2931 20.576C26.9347 21.5758 26.7489 22.6162 26.7356 23.6835C26.7356 24.6969 26.9215 25.6967 27.2799 26.629ZM37.0099 25.9534L42.2399 30.939L36.9966 37.4243L36.9568 37.3837C36.2665 36.7217 35.7223 35.8975 35.3771 35.0058C35.0055 34.0465 34.8196 33.0332 34.8196 32.0063C34.8196 30.9255 35.0187 29.8581 35.3771 28.8448C35.7488 27.8179 36.2798 26.8586 36.9701 26.0074L37.0099 25.9534ZM35.4568 34.9382C35.7886 35.8029 36.3063 36.5866 36.9701 37.2351L42.0408 30.9795L36.9966 26.1561C36.3462 26.9667 35.8285 27.899 35.4701 28.8853C35.1117 29.8851 34.9125 30.9255 34.9125 31.9928C34.9125 32.9926 35.0984 33.9925 35.4568 34.9382ZM20.6427 9.34835L25.8728 14.3339L20.6295 20.8192L20.5896 20.7787C19.8994 20.1166 19.3551 19.2925 18.9967 18.4007C18.6251 17.4415 18.4259 16.4281 18.4392 15.4013C18.4392 14.3204 18.6383 13.253 18.9967 12.2397C19.3684 11.2129 19.9127 10.2536 20.5896 9.40239L20.6427 9.34835ZM19.1029 18.3332C19.4481 19.1979 19.9658 19.9815 20.6295 20.6301L25.7002 14.3744L20.656 9.55101C20.0056 10.3752 19.4879 11.2939 19.1295 12.2802C18.7711 13.2801 18.572 14.3204 18.572 15.3878C18.5587 16.3876 18.7445 17.3874 19.1029 18.3332ZM45.1868 17.6441L50.4169 22.6297L45.1735 29.115L45.1337 29.0744C44.4434 28.4124 43.8992 27.5882 43.5408 26.6965C43.1691 25.7372 42.9833 24.7239 42.9833 23.6971C42.9833 22.6162 43.1824 21.5488 43.5408 20.5355C43.9125 19.5086 44.4567 18.5494 45.1337 17.6982L45.1868 17.6441ZM43.647 26.629C43.9921 27.4937 44.5098 28.2773 45.1735 28.9258L50.2443 22.6702L45.2001 17.8468C44.5496 18.671 44.0319 19.5897 43.6735 20.576C43.3151 21.5758 43.116 22.6162 43.116 23.6835C43.0895 24.6969 43.2753 25.6967 43.647 26.629Z" fill="#4B76A8"/>
<path fill-rule="evenodd" clip-rule="evenodd" d="M27.3591 3.47054L27.3192 3.57863C27.306 3.60565 27.2927 3.63267 27.2794 3.6597C27.2396 3.75427 27.1998 3.84885 27.1732 3.94343C26.8015 4.95676 26.6157 6.02413 26.6157 7.10501C26.6157 8.13185 26.8015 9.14518 27.1732 10.0909C27.5316 10.9962 28.0759 11.8068 28.7661 12.4824L26.8546 11.4285C26.1644 10.7665 25.6201 9.94233 25.2617 9.0506C24.8901 8.09132 24.6909 7.07799 24.7042 6.05115C24.7042 4.97027 24.9033 3.9029 25.2617 2.88957L25.275 2.87606C25.3148 2.75446 25.3679 2.64637 25.4078 2.52477L25.4476 2.41668C25.4874 2.33562 25.5139 2.25455 25.5538 2.17348L25.6069 2.05188C25.6467 1.97082 25.6732 1.90326 25.7131 1.83571L25.7794 1.71411L25.8193 1.63304L25.8591 1.56549C25.9122 1.47091 25.9653 1.37633 26.0184 1.28176C26.0316 1.25473 26.0449 1.24122 26.0582 1.2142L26.1113 1.11962C26.1511 1.06558 26.1909 1.01154 26.2175 0.94398C26.2706 0.862914 26.3237 0.768336 26.39 0.68727C26.39 0.68727 26.39 0.673759 26.4033 0.673759C26.4033 0.673759 26.4033 0.660249 26.4166 0.660249C26.4431 0.619716 26.4697 0.592693 26.4962 0.55216C26.5095 0.525138 26.5361 0.498116 26.5493 0.484605L26.629 0.376517C26.7086 0.268429 26.7883 0.173851 26.8679 0.0657631L26.9077 0.0117188L28.8325 1.06558L28.7927 1.11962C28.713 1.2142 28.6334 1.32229 28.5537 1.43038L28.4741 1.53847C28.4476 1.579 28.4077 1.63304 28.3812 1.67358C28.3679 1.7006 28.3546 1.71411 28.3281 1.74113C28.2219 1.88975 28.1422 2.02486 28.0493 2.17348L27.9962 2.26806C27.9299 2.38966 27.8635 2.49775 27.7971 2.61935C27.7706 2.67339 27.7307 2.72744 27.7175 2.76797C27.6909 2.8085 27.6776 2.84904 27.6511 2.88957C27.6378 2.9301 27.6113 2.95712 27.598 2.99766C27.5847 3.03819 27.5582 3.07872 27.5449 3.11926L27.5316 3.13277V3.14628C27.5184 3.1733 27.5051 3.21383 27.4918 3.24086C27.4653 3.30841 27.4254 3.37597 27.3989 3.45703L27.3591 3.47054ZM19.1423 11.8744C19.1556 11.8474 19.1556 11.8339 19.1689 11.8068V11.7933C19.1689 11.7933 19.1689 11.7798 19.1821 11.7798C19.222 11.6988 19.2485 11.6177 19.2883 11.5366L19.3414 11.415C19.3547 11.388 19.368 11.3475 19.3945 11.3205C19.4078 11.2799 19.4343 11.2394 19.4476 11.1989C19.4742 11.1583 19.4874 11.1178 19.514 11.0773C19.5273 11.0637 19.5405 11.0367 19.5538 11.0097C19.5671 10.9827 19.5804 10.9421 19.6069 10.9151C19.6733 10.7935 19.7397 10.6854 19.806 10.5638L19.8591 10.4693C19.952 10.3206 20.045 10.1855 20.1379 10.0369C20.1644 10.0099 20.1777 9.96935 20.2043 9.94233C20.2308 9.90179 20.2574 9.86126 20.2839 9.83424L20.3635 9.72615C20.4432 9.61806 20.5228 9.52348 20.6025 9.4154L20.6423 9.36135L18.7308 8.30749L18.691 8.36153C18.6113 8.45611 18.5317 8.5642 18.4521 8.67229C18.4388 8.69931 18.4122 8.71282 18.399 8.73984C18.399 8.75336 18.3857 8.75335 18.3857 8.76687V8.78038C18.3724 8.8074 18.3591 8.82091 18.3326 8.84793C18.306 8.88847 18.2795 8.91549 18.2529 8.95602L18.2397 8.96953C18.2397 8.96953 18.2397 8.98304 18.2264 8.98304C18.1733 9.0506 18.1335 9.13167 18.0804 9.19922C18.0406 9.26678 17.9875 9.33433 17.9344 9.4154C17.9211 9.44242 17.9078 9.45593 17.8945 9.48295C17.8813 9.49646 17.8813 9.50997 17.868 9.52348C17.8016 9.64508 17.722 9.75317 17.6689 9.87477L17.6556 9.88828C17.6423 9.90179 17.6291 9.92882 17.6291 9.94233C17.6291 9.95584 17.6158 9.95584 17.6158 9.96935C17.6025 9.98286 17.6025 10.0099 17.5892 10.0234L17.5229 10.145C17.5096 10.1585 17.5096 10.172 17.4963 10.1855C17.4698 10.2396 17.4432 10.2936 17.4167 10.3612L17.3636 10.4828C17.337 10.5503 17.3105 10.6044 17.2839 10.6719L17.2574 10.726L17.2175 10.8341C17.2043 10.8746 17.1777 10.9151 17.1645 10.9692C17.1379 11.0367 17.1114 11.1178 17.0715 11.1853V11.1989C16.6999 12.2122 16.514 13.2796 16.514 14.3604C16.5007 15.3873 16.6866 16.4006 17.0715 17.3599C17.4167 18.2651 17.9609 19.0758 18.6512 19.7378L20.5627 20.7917C19.8724 20.1296 19.3282 19.3055 18.9698 18.4137C18.5981 17.4545 18.399 16.4411 18.4122 15.4143C18.4122 14.3334 18.6113 13.266 18.9698 12.2527C19.0096 12.1852 19.0361 12.1041 19.0627 12.0365C19.1025 11.969 19.1158 11.9284 19.1423 11.8744ZM2.77518 11.8744L2.815 11.7663C2.85483 11.6853 2.88138 11.6042 2.9212 11.5231L2.97429 11.4015C2.98757 11.3745 3.00084 11.334 3.02739 11.3069C3.04067 11.2664 3.06721 11.2259 3.08049 11.1853L3.14686 11.0637L3.2265 10.9151C3.29288 10.7935 3.35925 10.6854 3.42562 10.5638C3.43889 10.5503 3.43889 10.5368 3.45217 10.5233C3.46544 10.4963 3.47872 10.4828 3.49199 10.4557C3.58491 10.3071 3.67783 10.172 3.77075 10.0234C3.7973 9.99637 3.81057 9.95584 3.83712 9.92882C3.86367 9.88828 3.89022 9.84775 3.91677 9.82073L3.93004 9.80722C3.95659 9.78019 3.96986 9.75317 3.99641 9.72615C4.07606 9.61806 4.1557 9.52348 4.23535 9.4154L4.27517 9.36135L2.36368 8.30749L2.32386 8.36153C2.24421 8.45611 2.16457 8.5642 2.08492 8.67229L2.00528 8.78038C1.992 8.79389 1.992 8.8074 1.97873 8.82091C1.9389 8.86144 1.91236 8.91549 1.88581 8.95602L1.87253 8.98304C1.81944 9.06411 1.75306 9.15869 1.69997 9.23975C1.66014 9.2938 1.62032 9.34784 1.59377 9.4154L1.54068 9.50997C1.5274 9.53699 1.51413 9.55051 1.50085 9.57753C1.44776 9.6721 1.38139 9.76668 1.34156 9.86126C1.34156 9.87477 1.32829 9.88828 1.31502 9.90179C1.30174 9.9153 1.30174 9.92882 1.28847 9.94233L1.24864 10.0234C1.2221 10.0639 1.20882 10.1045 1.18227 10.145C1.169 10.172 1.15572 10.1855 1.15572 10.2125C1.12918 10.2666 1.10263 10.3206 1.07608 10.3747C1.0628 10.3882 1.0628 10.4152 1.04953 10.4287C1.03626 10.4557 1.02298 10.4693 1.02298 10.4963C0.983159 10.5773 0.956611 10.6584 0.916788 10.7395L0.876965 10.8341C0.837142 10.9421 0.784046 11.0637 0.744223 11.1853V11.1989C0.372544 12.2122 0.186705 13.2796 0.186705 14.3604C0.186705 15.3873 0.372544 16.4006 0.744223 17.3599C1.10263 18.2651 1.6336 19.0758 2.33713 19.7378L4.24862 20.7917C3.55836 20.1296 3.01412 19.3055 2.66899 18.4137C2.29731 17.4545 2.11147 16.4411 2.11147 15.4143C2.11147 14.3334 2.31058 13.266 2.66899 12.2527C2.68226 12.1176 2.73536 11.996 2.77518 11.8744ZM2.77518 28.4795C2.78846 28.4524 2.78846 28.4389 2.80173 28.4119C2.80173 28.3984 2.815 28.3849 2.815 28.3714C2.85483 28.2903 2.88138 28.2092 2.9212 28.1282L2.97429 28.0066C2.98757 27.9795 3.00084 27.939 3.02739 27.912C3.04067 27.8715 3.06721 27.8309 3.08049 27.7904L3.14686 27.6688L3.2265 27.5202C3.29288 27.3986 3.35925 27.2905 3.42562 27.1689C3.43889 27.1554 3.43889 27.1419 3.45217 27.1284C3.46544 27.1013 3.47872 27.0878 3.49199 27.0608C3.58491 26.9122 3.67783 26.7771 3.77075 26.6284C3.78402 26.6014 3.7973 26.5879 3.81057 26.5609C3.83712 26.5068 3.87694 26.4663 3.90349 26.4258C3.91677 26.4123 3.91677 26.3988 3.93004 26.3852C3.94331 26.3582 3.95659 26.3447 3.98314 26.3177C4.06278 26.2096 4.14243 26.115 4.22207 26.0069L4.2619 25.9529L2.35041 24.899L2.31058 24.9531C2.23094 25.0477 2.15129 25.1557 2.07165 25.2638L1.992 25.3719C1.95218 25.426 1.89908 25.4935 1.85926 25.5476L1.84598 25.5746C1.79289 25.6557 1.72652 25.7502 1.67342 25.8313C1.6336 25.8853 1.59377 25.9394 1.56723 26.0069L1.51413 26.1015L1.50085 26.1285C1.43448 26.2366 1.36811 26.3447 1.31502 26.4528C1.31502 26.4663 1.30174 26.4798 1.28847 26.4933C1.27519 26.5068 1.27519 26.5204 1.26192 26.5339L1.2221 26.6149C1.19555 26.6555 1.18227 26.696 1.15572 26.7365C1.14245 26.75 1.14245 26.7636 1.12918 26.7771C1.10263 26.8311 1.07608 26.8852 1.04953 26.9527C1.03626 26.9797 1.03626 26.9932 1.02298 27.0203C1.00971 27.0473 1.00971 27.0608 0.996434 27.0878C0.956611 27.1689 0.930062 27.25 0.890239 27.331C0.890239 27.3445 0.876965 27.358 0.876965 27.3716C0.863691 27.3986 0.863691 27.4121 0.850417 27.4391C0.810594 27.5607 0.757497 27.6688 0.717675 27.7904V27.8039C0.345996 28.8172 0.160156 29.8846 0.160156 30.9655C0.160156 31.9923 0.345996 33.0057 0.717675 33.9649C1.0628 34.8702 1.60705 35.6808 2.31058 36.3429L4.22207 37.3967C3.53181 36.7347 2.98757 35.9105 2.64244 35.0188C2.25749 34.073 2.07165 33.0462 2.07165 32.0193C2.07165 30.9385 2.27076 29.8711 2.62916 28.8578C2.68226 28.7227 2.73536 28.6011 2.77518 28.4795ZM10.9919 20.0756L10.9521 20.1702C10.9123 20.2918 10.8592 20.4134 10.8061 20.535C10.4344 21.5483 10.2486 22.6157 10.2486 23.6966C10.2486 24.7234 10.4344 25.7367 10.8061 26.696C11.1512 27.6012 11.6955 28.4119 12.3857 29.0739L10.4742 28.0201C9.78398 27.358 9.23973 26.5474 8.88133 25.6421C8.50965 24.6829 8.32381 23.6695 8.32381 22.6427C8.32381 21.5618 8.52293 20.4944 8.88133 19.4811V19.4676C8.92115 19.3865 8.9477 19.3055 8.98752 19.2109C9.0008 19.1839 9.01407 19.1433 9.02735 19.1163C9.04062 19.1028 9.04062 19.0758 9.0539 19.0623C9.06717 19.0488 9.06717 19.0353 9.08044 19.0082C9.12027 18.9272 9.14682 18.8461 9.18664 18.765C9.19991 18.738 9.21318 18.6975 9.22646 18.6705L9.23973 18.6434C9.27956 18.5624 9.30611 18.4948 9.34593 18.4273L9.4123 18.3057C9.4123 18.2921 9.42557 18.2921 9.42557 18.2786L9.43885 18.2651C9.45212 18.2516 9.45212 18.2381 9.4654 18.2246C9.4654 18.2111 9.47867 18.1976 9.49194 18.1841C9.50522 18.1705 9.50522 18.157 9.51849 18.1435C9.58486 18.0219 9.65124 17.9138 9.71761 17.7922L9.73088 17.7787C9.74415 17.7517 9.75743 17.7247 9.78398 17.6977C9.8769 17.549 9.96982 17.4139 10.0627 17.2653L10.076 17.2383C10.1026 17.1978 10.1291 17.1572 10.1689 17.1167L10.1955 17.0897L10.2088 17.0626L10.2884 16.9546C10.368 16.8465 10.4477 16.7519 10.5273 16.6438L10.5672 16.5898L12.4786 17.6436L12.4388 17.6977C12.3592 17.8057 12.2795 17.9003 12.1999 18.0084C12.1866 18.0354 12.1733 18.0489 12.1468 18.076L12.1335 18.0895C12.1335 18.103 12.1202 18.103 12.1202 18.1165C12.0937 18.157 12.0671 18.1841 12.0406 18.2246C12.0141 18.2516 12.0008 18.2921 11.9742 18.3192C11.868 18.4678 11.7884 18.6029 11.6955 18.7515L11.6424 18.8461C11.576 18.9677 11.5096 19.0758 11.4433 19.1974C11.43 19.2244 11.4167 19.2514 11.4034 19.2784C11.3902 19.3055 11.3769 19.3325 11.3636 19.3595L11.2972 19.4811C11.2707 19.5216 11.2574 19.5622 11.2441 19.6027C11.2309 19.6297 11.2176 19.6703 11.191 19.6973L11.138 19.8189C11.0716 19.9135 11.0318 19.9945 10.9919 20.0756ZM19.1689 28.4119L19.1821 28.3984V28.3849V28.3714C19.222 28.2903 19.2485 28.2092 19.2883 28.1282L19.3414 28.0066C19.3547 27.9795 19.368 27.939 19.3945 27.912C19.4078 27.8715 19.4343 27.8309 19.4476 27.7904C19.4742 27.7499 19.4874 27.7093 19.514 27.6688L19.5936 27.5202C19.66 27.3986 19.7264 27.2905 19.7928 27.1689L19.8458 27.0743C19.9388 26.9257 20.0317 26.7906 20.1246 26.642L20.2706 26.4393L20.3503 26.3312C20.4299 26.2231 20.5096 26.1285 20.5892 26.0205L20.629 25.9664L18.7175 24.9125L18.6777 24.9666C18.5981 25.0747 18.5184 25.1693 18.4388 25.2773C18.4255 25.3044 18.4122 25.3179 18.3857 25.3449L18.3724 25.3584C18.3724 25.3719 18.3591 25.3719 18.3591 25.3854C18.3459 25.4125 18.3193 25.4395 18.306 25.4665C18.2795 25.507 18.2529 25.5341 18.2264 25.5746C18.2264 25.5746 18.2264 25.5881 18.2131 25.5881C18.1998 25.5881 18.2131 25.6016 18.1998 25.6016C18.1467 25.6692 18.1069 25.7502 18.0538 25.8178C18.0007 25.8853 17.9609 25.9664 17.9078 26.034C17.8945 26.061 17.8813 26.088 17.8547 26.115L17.8414 26.1285C17.7751 26.2501 17.6954 26.3582 17.6423 26.4798L17.6291 26.4933C17.6158 26.5068 17.6025 26.5339 17.6025 26.5474C17.5892 26.5744 17.576 26.6014 17.5627 26.6284L17.4963 26.75C17.4565 26.8176 17.4299 26.8852 17.3901 26.9662L17.337 27.0878C17.2972 27.1689 17.2706 27.25 17.2308 27.331C17.2176 27.3445 17.2175 27.358 17.2043 27.3851C17.191 27.3986 17.191 27.4121 17.1777 27.4391C17.1645 27.4661 17.1512 27.5067 17.1379 27.5337C17.1114 27.6148 17.0715 27.6958 17.0317 27.7904V27.8039C16.66 28.8172 16.4742 29.8846 16.4742 30.9655C16.4609 31.9923 16.6468 33.0057 17.0317 33.9649C17.3768 34.8702 17.9211 35.6808 18.6113 36.3429L20.5228 37.3967C19.8326 36.7347 19.2883 35.9105 18.9299 35.0188C18.5582 34.0595 18.3591 33.0462 18.3724 32.0193C18.3724 30.9385 18.5715 29.8711 18.9299 28.8578C18.9697 28.7767 18.9963 28.7091 19.0228 28.6281C19.0361 28.5875 19.0627 28.5335 19.0759 28.493C19.1423 28.4659 19.1556 28.4389 19.1689 28.4119ZM27.3591 35.6808L27.3192 35.7889V35.8024L27.306 35.8295L27.2927 35.87C27.2529 35.9646 27.2131 36.0591 27.1865 36.1672C26.8148 37.1806 26.629 38.2479 26.629 39.3288C26.6157 40.3557 26.8148 41.369 27.1865 42.3283C27.5316 43.2335 28.0759 44.0442 28.7794 44.7062L26.8679 43.6523C26.1777 42.9903 25.6334 42.1661 25.275 41.2744C24.9033 40.3151 24.7042 39.3018 24.7175 38.275C24.7175 37.1941 24.9166 36.1267 25.275 35.1134L25.2883 35.0999C25.3281 34.9783 25.3812 34.8702 25.421 34.7486L25.4609 34.6405C25.5007 34.5594 25.5272 34.4784 25.567 34.3973L25.6201 34.2757C25.6467 34.2081 25.6732 34.1541 25.6998 34.1C25.7131 34.0865 25.7131 34.073 25.7263 34.0595L25.7927 33.9379C25.806 33.9109 25.8193 33.8839 25.8325 33.8568L25.8723 33.7893C25.9254 33.6947 25.9785 33.6001 26.0316 33.5056L26.0582 33.465L26.0715 33.438L26.1246 33.3434C26.1644 33.2894 26.2042 33.2353 26.2308 33.1678C26.2839 33.0867 26.3369 32.9921 26.4033 32.9111C26.4033 32.9111 26.4033 32.9111 26.4033 32.8976C26.4033 32.8976 26.4033 32.8841 26.4166 32.8841C26.4431 32.8435 26.4697 32.803 26.4962 32.776C26.5095 32.7489 26.5228 32.7354 26.5493 32.7084L26.629 32.6003C26.7086 32.4922 26.7883 32.3977 26.8679 32.2896L26.9077 32.2355L28.8192 33.2894L28.7794 33.3434C28.6998 33.438 28.6201 33.5461 28.5405 33.6542L28.4608 33.7623C28.4343 33.8028 28.4077 33.8433 28.3812 33.8839C28.3679 33.9109 28.3414 33.9379 28.3281 33.9649C28.2219 34.1136 28.1422 34.2487 28.0493 34.3973L27.9962 34.4919C27.9299 34.6135 27.8635 34.7216 27.7971 34.8432C27.7838 34.8702 27.7706 34.8972 27.744 34.9377C27.7307 34.9648 27.7175 34.9783 27.7042 35.0053C27.6776 35.0458 27.6644 35.0864 27.6378 35.1269C27.6246 35.1674 27.598 35.1944 27.5847 35.235C27.5715 35.2755 27.5449 35.316 27.5316 35.3566C27.5316 35.3701 27.5184 35.3701 27.5184 35.3836C27.5051 35.4106 27.4918 35.4512 27.4785 35.4782C27.4254 35.5187 27.3989 35.5998 27.3591 35.6808ZM35.4962 11.8744L35.536 11.7663C35.5758 11.6853 35.6024 11.6042 35.6422 11.5231L35.6953 11.4015C35.7086 11.3745 35.7218 11.334 35.7484 11.3069C35.7617 11.2664 35.7882 11.2259 35.8015 11.1853C35.8148 11.1583 35.828 11.1178 35.8546 11.0908L35.8679 11.0637L35.9475 10.9151C36.0139 10.7935 36.0802 10.6854 36.1466 10.5638C36.1466 10.5638 36.1466 10.5503 36.1599 10.5503C36.1599 10.5368 36.1732 10.5368 36.1732 10.5233C36.1864 10.4963 36.1997 10.4828 36.213 10.4557C36.3059 10.3071 36.3988 10.172 36.4917 10.0234C36.5183 9.99637 36.5316 9.95584 36.5581 9.92882C36.5847 9.88828 36.6112 9.84775 36.6378 9.82073L36.651 9.80722C36.6776 9.78019 36.6909 9.75317 36.7174 9.72615C36.797 9.61806 36.8767 9.52348 36.9563 9.4154L36.9962 9.36135L35.0847 8.30749L35.0448 8.36153C34.9652 8.45611 34.8856 8.5642 34.8059 8.67229L34.7263 8.78038C34.713 8.79389 34.6997 8.8074 34.6997 8.82091C34.6732 8.86144 34.6333 8.91549 34.6068 8.95602L34.5935 8.98304C34.5404 9.06411 34.4741 9.15869 34.421 9.23975C34.3811 9.2938 34.3413 9.34784 34.3148 9.4154L34.2617 9.50997C34.2484 9.53699 34.2351 9.55051 34.2218 9.57753C34.1687 9.6721 34.1024 9.76668 34.0626 9.86126C34.0626 9.87477 34.0493 9.88828 34.036 9.90179C34.0227 9.9153 34.0227 9.92882 34.0095 9.94233L33.9696 10.0234L33.9033 10.145C33.89 10.172 33.8767 10.1855 33.8767 10.2125C33.8502 10.2666 33.8236 10.3206 33.7971 10.3747C33.7838 10.4017 33.7838 10.4152 33.7705 10.4422C33.7572 10.4693 33.7572 10.4828 33.744 10.5098C33.7174 10.5773 33.6776 10.6449 33.6511 10.726L33.6378 10.7665L33.598 10.8746C33.5581 10.9827 33.505 11.1043 33.4652 11.2259V11.2394C33.0935 12.2527 32.9077 13.3201 32.9077 14.401C32.8944 15.4278 33.0935 16.4411 33.4652 17.4004C33.8103 18.3057 34.3546 19.1163 35.0581 19.7784L36.9696 20.8322C36.2794 20.1702 35.7351 19.346 35.39 18.4543C35.0183 17.495 34.8325 16.4817 34.8325 15.4548C34.8325 14.3739 35.0316 13.3066 35.39 12.2932C35.4033 12.1176 35.4431 11.996 35.4962 11.8744ZM27.3192 20.1567C27.3192 20.1567 27.3192 20.1702 27.306 20.1702C27.2927 20.1972 27.2794 20.2242 27.2794 20.2512C27.2396 20.3458 27.1998 20.4404 27.1732 20.535C26.8015 21.5483 26.6157 22.6157 26.6157 23.6966C26.6024 24.7234 26.8015 25.7367 27.1732 26.696C27.5184 27.6012 28.0626 28.4119 28.7661 29.0739L26.8414 28.0066C26.1511 27.3445 25.6069 26.5204 25.2617 25.6286C24.8901 24.6694 24.6909 23.656 24.7042 22.6292C24.7042 21.5483 24.9033 20.4809 25.2617 19.4676L25.275 19.4541C25.3148 19.3325 25.3679 19.2244 25.4078 19.1028L25.4476 19.0082C25.4874 18.9272 25.5139 18.8461 25.5538 18.765L25.6069 18.6434C25.6334 18.5759 25.66 18.5218 25.6865 18.4678L25.6998 18.4408L25.7131 18.4137L25.7794 18.2921C25.7927 18.2651 25.806 18.2381 25.8193 18.2111L25.8591 18.1435C25.9122 18.0354 25.9785 17.9273 26.0449 17.8193L26.0582 17.7922L26.1113 17.6977C26.1511 17.6436 26.1909 17.5896 26.2175 17.522C26.2706 17.4409 26.3237 17.3464 26.39 17.2653L26.4033 17.2383C26.4299 17.1978 26.4564 17.1572 26.483 17.1302C26.4962 17.1032 26.5095 17.0897 26.5361 17.0626L26.6157 16.9546C26.6954 16.8465 26.775 16.7519 26.8546 16.6438L26.8945 16.5898L28.806 17.6436L28.7661 17.6977C28.6865 17.7922 28.6068 17.9003 28.5272 18.0084L28.4476 18.1165C28.421 18.157 28.3945 18.1976 28.3679 18.2381C28.3546 18.2651 28.3281 18.2921 28.3148 18.3192C28.2086 18.4678 28.129 18.6029 28.0361 18.7515L27.983 18.8461C27.9166 18.9677 27.8502 19.0758 27.7838 19.1974C27.7573 19.2514 27.7175 19.3055 27.7042 19.346C27.6776 19.3865 27.6644 19.4271 27.6378 19.4676C27.6246 19.5081 27.598 19.5352 27.5847 19.5757C27.5715 19.6162 27.5449 19.6568 27.5316 19.6973C27.5316 19.7108 27.5184 19.7108 27.5184 19.7243C27.5184 19.7243 27.5184 19.7378 27.5051 19.7378C27.4918 19.7648 27.4785 19.7919 27.4653 19.8189C27.4254 19.9 27.3989 19.981 27.3591 20.0621C27.3458 20.0756 27.3458 20.1026 27.3325 20.1161C27.3325 20.1432 27.3325 20.1432 27.3192 20.1567ZM35.4962 28.4795C35.5094 28.4659 35.5094 28.4524 35.5227 28.4254C35.536 28.4119 35.536 28.3984 35.5493 28.3714C35.5891 28.2903 35.6156 28.2092 35.6555 28.1282L35.7086 28.0066C35.7218 27.9795 35.7351 27.939 35.7617 27.912C35.7749 27.8715 35.8015 27.8309 35.8148 27.7904L35.8811 27.6688L35.9608 27.5202C36.0271 27.3986 36.0935 27.2905 36.1599 27.1689C36.1599 27.1689 36.1599 27.1554 36.1732 27.1554C36.1864 27.1284 36.1997 27.1013 36.2263 27.0743C36.3192 26.9257 36.4121 26.7906 36.505 26.642L36.651 26.4393L36.6643 26.4258C36.6643 26.4123 36.6776 26.4123 36.6776 26.3988C36.6909 26.3717 36.7041 26.3582 36.7307 26.3312C36.8103 26.2231 36.89 26.1285 36.9696 26.0205L37.0094 25.9664L35.0979 24.9125L35.0581 24.9666C34.9785 25.0747 34.8988 25.1693 34.8192 25.2773L34.7395 25.3854C34.7263 25.3989 34.713 25.426 34.6997 25.4395C34.6732 25.48 34.6333 25.5205 34.6068 25.5611L34.5935 25.5881C34.5404 25.6692 34.4741 25.7637 34.421 25.8448C34.3811 25.8989 34.3413 25.9529 34.3148 26.0205L34.2617 26.115L34.2484 26.1421C34.182 26.2501 34.1157 26.3582 34.0626 26.4663C34.0626 26.4798 34.0493 26.4933 34.0493 26.4933C34.036 26.5068 34.036 26.5204 34.0227 26.5339L33.9829 26.6149C33.9564 26.6555 33.9431 26.696 33.9165 26.7365C33.9033 26.75 33.9033 26.7636 33.89 26.7771C33.8634 26.8311 33.8369 26.8852 33.8103 26.9527C33.7971 26.9797 33.7971 26.9932 33.7838 27.0203C33.7705 27.0473 33.7705 27.0608 33.7572 27.0878C33.7174 27.1689 33.6909 27.25 33.6511 27.331C33.6511 27.3445 33.6378 27.358 33.6378 27.358C33.6378 27.358 33.6378 27.3716 33.6245 27.3716C33.6112 27.3851 33.6112 27.3986 33.598 27.4256C33.5581 27.5472 33.505 27.6553 33.4652 27.7769V27.7904C33.0935 28.8037 32.9077 29.8711 32.9077 30.952C32.8944 31.9788 33.0935 32.9921 33.4652 33.9514C33.8103 34.8567 34.3546 35.6673 35.0581 36.3294L36.9696 37.3832C36.2794 36.7212 35.7351 35.897 35.3767 35.0053C35.005 34.046 34.8192 33.0327 34.8192 32.0058C34.8192 30.925 35.0183 29.8576 35.3767 28.8443C35.4033 28.7227 35.4431 28.6011 35.4962 28.4795ZM43.7262 20.0756L43.6864 20.1702C43.6466 20.2648 43.6067 20.3728 43.5669 20.4674C43.5536 20.4809 43.5536 20.508 43.5404 20.5215C43.1687 21.5348 42.9828 22.6022 42.9828 23.683C42.9696 24.7099 43.1687 25.7232 43.5404 26.6825C43.8855 27.5877 44.4297 28.3984 45.1333 29.0604L43.2218 28.0066C42.5315 27.3445 41.9873 26.5204 41.6421 25.6286C41.2705 24.6694 41.0846 23.656 41.0846 22.6292C41.0846 21.5483 41.2837 20.4809 41.6421 19.4676V19.4541C41.682 19.3325 41.7351 19.2244 41.7749 19.1028C41.7882 19.0893 41.7882 19.0623 41.8014 19.0488C41.8147 19.0352 41.8147 19.0217 41.828 18.9947C41.8678 18.9137 41.8944 18.8326 41.9342 18.7515C41.9474 18.7245 41.9607 18.684 41.974 18.6569C41.974 18.6434 41.9873 18.6299 41.9873 18.6299C42.0271 18.5489 42.0536 18.4813 42.0935 18.4137L42.1067 18.3867C42.12 18.3462 42.1466 18.3057 42.1598 18.2786C42.1731 18.2516 42.1864 18.2246 42.1997 18.1976C42.1997 18.1841 42.2129 18.1705 42.2262 18.157C42.2395 18.1435 42.2395 18.13 42.2528 18.1165C42.3191 17.9949 42.3855 17.8868 42.4519 17.7652L42.4651 17.7517C42.4784 17.7247 42.4917 17.6977 42.5182 17.6706C42.6112 17.522 42.7041 17.3869 42.797 17.2383L42.8103 17.2113C42.8368 17.1707 42.8634 17.1302 42.9032 17.0897C42.9165 17.0762 42.9297 17.0491 42.943 17.0356L43.0227 16.9275C43.1023 16.8194 43.182 16.7249 43.2616 16.6168L43.3014 16.5627L45.2129 17.6166L45.1731 17.6706C45.0934 17.7652 45.0138 17.8733 44.9342 17.9814C44.9209 18.0084 44.9076 18.0219 44.8811 18.0489C44.8678 18.0625 44.8678 18.076 44.8545 18.0895C44.828 18.13 44.8014 18.157 44.7749 18.1976C44.7483 18.2246 44.735 18.2651 44.7085 18.2921C44.6023 18.4408 44.5227 18.5759 44.4297 18.7245L44.3766 18.8191C44.3103 18.9407 44.2439 19.0488 44.1775 19.1704C44.151 19.2244 44.1244 19.2784 44.0979 19.319L44.0315 19.4406C44.005 19.4811 43.9917 19.5216 43.9784 19.5622C43.9651 19.5892 43.9519 19.6297 43.9253 19.6568L43.8722 19.7784C43.7926 19.9135 43.7527 19.9945 43.7262 20.0756Z" fill="#324E70"/>
<path fill-rule="evenodd" clip-rule="evenodd" d="M27.3591 3.47054L27.3192 3.57863C27.306 3.60565 27.2927 3.63267 27.2794 3.6597C27.2396 3.75427 27.1998 3.84885 27.1732 3.94343C26.8015 4.95676 26.6157 6.02413 26.6157 7.10501C26.6157 8.13185 26.8015 9.14518 27.1732 10.0909C27.5316 10.9962 28.0759 11.8068 28.7661 12.4824L26.8546 11.4285C26.1644 10.7665 25.6201 9.94233 25.2617 9.0506C24.8901 8.09132 24.6909 7.07799 24.7042 6.05115C24.7042 4.97027 24.9033 3.9029 25.2617 2.88957L25.275 2.87606C25.3148 2.75446 25.3679 2.64637 25.4078 2.52477L25.4476 2.41668C25.4874 2.33562 25.5139 2.25455 25.5538 2.17348L25.6069 2.05188C25.6467 1.97082 25.6732 1.90326 25.7131 1.83571L25.7794 1.71411L25.8193 1.63304L25.8591 1.56549C25.9122 1.47091 25.9653 1.37633 26.0184 1.28176C26.0316 1.25473 26.0449 1.24122 26.0582 1.2142L26.1113 1.11962C26.1511 1.06558 26.1909 1.01154 26.2175 0.94398C26.2706 0.862914 26.3237 0.768336 26.39 0.68727C26.39 0.68727 26.39 0.673759 26.4033 0.673759C26.4033 0.673759 26.4033 0.660249 26.4166 0.660249C26.4431 0.619716 26.4697 0.592693 26.4962 0.55216C26.5095 0.525138 26.5361 0.498116 26.5493 0.484605L26.629 0.376517C26.7086 0.268429 26.7883 0.173851 26.8679 0.0657631L26.9077 0.0117188L28.8325 1.06558L28.7927 1.11962C28.713 1.2142 28.6334 1.32229 28.5537 1.43038L28.4741 1.53847C28.4476 1.579 28.4077 1.63304 28.3812 1.67358C28.3679 1.7006 28.3546 1.71411 28.3281 1.74113C28.2219 1.88975 28.1422 2.02486 28.0493 2.17348L27.9962 2.26806C27.9299 2.38966 27.8635 2.49775 27.7971 2.61935C27.7706 2.67339 27.7307 2.72744 27.7175 2.76797C27.6909 2.8085 27.6776 2.84904 27.6511 2.88957C27.6378 2.9301 27.6113 2.95712 27.598 2.99766C27.5847 3.03819 27.5582 3.07872 27.5449 3.11926L27.5316 3.13277V3.14628C27.5184 3.1733 27.5051 3.21383 27.4918 3.24086C27.4653 3.30841 27.4254 3.37597 27.3989 3.45703L27.3591 3.47054ZM19.1423 11.8744C19.1556 11.8474 19.1556 11.8339 19.1689 11.8068V11.7933C19.1689 11.7933 19.1689 11.7798 19.1821 11.7798C19.222 11.6988 19.2485 11.6177 19.2883 11.5366L19.3414 11.415C19.3547 11.388 19.368 11.3475 19.3945 11.3205C19.4078 11.2799 19.4343 11.2394 19.4476 11.1989C19.4742 11.1583 19.4874 11.1178 19.514 11.0773C19.5273 11.0637 19.5405 11.0367 19.5538 11.0097C19.5671 10.9827 19.5804 10.9421 19.6069 10.9151C19.6733 10.7935 19.7397 10.6854 19.806 10.5638L19.8591 10.4693C19.952 10.3206 20.045 10.1855 20.1379 10.0369C20.1644 10.0099 20.1777 9.96935 20.2043 9.94233C20.2308 9.90179 20.2574 9.86126 20.2839 9.83424L20.3635 9.72615C20.4432 9.61806 20.5228 9.52348 20.6025 9.4154L20.6423 9.36135L18.7308 8.30749L18.691 8.36153C18.6113 8.45611 18.5317 8.5642 18.4521 8.67229C18.4388 8.69931 18.4122 8.71282 18.399 8.73984C18.399 8.75336 18.3857 8.75335 18.3857 8.76687V8.78038C18.3724 8.8074 18.3591 8.82091 18.3326 8.84793C18.306 8.88847 18.2795 8.91549 18.2529 8.95602L18.2397 8.96953C18.2397 8.96953 18.2397 8.98304 18.2264 8.98304C18.1733 9.0506 18.1335 9.13167 18.0804 9.19922C18.0406 9.26678 17.9875 9.33433 17.9344 9.4154C17.9211 9.44242 17.9078 9.45593 17.8945 9.48295C17.8813 9.49646 17.8813 9.50997 17.868 9.52348C17.8016 9.64508 17.722 9.75317 17.6689 9.87477L17.6556 9.88828C17.6423 9.90179 17.6291 9.92882 17.6291 9.94233C17.6291 9.95584 17.6158 9.95584 17.6158 9.96935C17.6025 9.98286 17.6025 10.0099 17.5892 10.0234L17.5229 10.145C17.5096 10.1585 17.5096 10.172 17.4963 10.1855C17.4698 10.2396 17.4432 10.2936 17.4167 10.3612L17.3636 10.4828C17.337 10.5503 17.3105 10.6044 17.2839 10.6719L17.2574 10.726L17.2175 10.8341C17.2043 10.8746 17.1777 10.9151 17.1645 10.9692C17.1379 11.0367 17.1114 11.1178 17.0715 11.1853V11.1989C16.6999 12.2122 16.514 13.2796 16.514 14.3604C16.5007 15.3873 16.6866 16.4006 17.0715 17.3599C17.4167 18.2651 17.9609 19.0758 18.6512 19.7378L20.5627 20.7917C19.8724 20.1296 19.3282 19.3055 18.9698 18.4137C18.5981 17.4545 18.399 16.4411 18.4122 15.4143C18.4122 14.3334 18.6113 13.266 18.9698 12.2527C19.0096 12.1852 19.0361 12.1041 19.0627 12.0365C19.1025 11.969 19.1158 11.9284 19.1423 11.8744ZM2.77518 11.8744L2.815 11.7663C2.85483 11.6853 2.88138 11.6042 2.9212 11.5231L2.97429 11.4015C2.98757 11.3745 3.00084 11.334 3.02739 11.3069C3.04067 11.2664 3.06721 11.2259 3.08049 11.1853L3.14686 11.0637L3.2265 10.9151C3.29288 10.7935 3.35925 10.6854 3.42562 10.5638C3.43889 10.5503 3.43889 10.5368 3.45217 10.5233C3.46544 10.4963 3.47872 10.4828 3.49199 10.4557C3.58491 10.3071 3.67783 10.172 3.77075 10.0234C3.7973 9.99637 3.81057 9.95584 3.83712 9.92882C3.86367 9.88828 3.89022 9.84775 3.91677 9.82073L3.93004 9.80722C3.95659 9.78019 3.96986 9.75317 3.99641 9.72615C4.07606 9.61806 4.1557 9.52348 4.23535 9.4154L4.27517 9.36135L2.36368 8.30749L2.32386 8.36153C2.24421 8.45611 2.16457 8.5642 2.08492 8.67229L2.00528 8.78038C1.992 8.79389 1.992 8.8074 1.97873 8.82091C1.9389 8.86144 1.91236 8.91549 1.88581 8.95602L1.87253 8.98304C1.81944 9.06411 1.75306 9.15869 1.69997 9.23975C1.66014 9.2938 1.62032 9.34784 1.59377 9.4154L1.54068 9.50997C1.5274 9.53699 1.51413 9.55051 1.50085 9.57753C1.44776 9.6721 1.38139 9.76668 1.34156 9.86126C1.34156 9.87477 1.32829 9.88828 1.31502 9.90179C1.30174 9.9153 1.30174 9.92882 1.28847 9.94233L1.24864 10.0234C1.2221 10.0639 1.20882 10.1045 1.18227 10.145C1.169 10.172 1.15572 10.1855 1.15572 10.2125C1.12918 10.2666 1.10263 10.3206 1.07608 10.3747C1.0628 10.3882 1.0628 10.4152 1.04953 10.4287C1.03626 10.4557 1.02298 10.4693 1.02298 10.4963C0.983159 10.5773 0.956611 10.6584 0.916788 10.7395L0.876965 10.8341C0.837142 10.9421 0.784046 11.0637 0.744223 11.1853V11.1989C0.372544 12.2122 0.186705 13.2796 0.186705 14.3604C0.186705 15.3873 0.372544 16.4006 0.744223 17.3599C1.10263 18.2651 1.6336 19.0758 2.33713 19.7378L4.24862 20.7917C3.55836 20.1296 3.01412 19.3055 2.66899 18.4137C2.29731 17.4545 2.11147 16.4411 2.11147 15.4143C2.11147 14.3334 2.31058 13.266 2.66899 12.2527C2.68226 12.1176 2.73536 11.996 2.77518 11.8744ZM2.77518 28.4795C2.78846 28.4524 2.78846 28.4389 2.80173 28.4119C2.80173 28.3984 2.815 28.3849 2.815 28.3714C2.85483 28.2903 2.88138 28.2092 2.9212 28.1282L2.97429 28.0066C2.98757 27.9795 3.00084 27.939 3.02739 27.912C3.04067 27.8715 3.06721 27.8309 3.08049 27.7904L3.14686 27.6688L3.2265 27.5202C3.29288 27.3986 3.35925 27.2905 3.42562 27.1689C3.43889 27.1554 3.43889 27.1419 3.45217 27.1284C3.46544 27.1013 3.47872 27.0878 3.49199 27.0608C3.58491 26.9122 3.67783 26.7771 3.77075 26.6284C3.78402 26.6014 3.7973 26.5879 3.81057 26.5609C3.83712 26.5068 3.87694 26.4663 3.90349 26.4258C3.91677 26.4123 3.91677 26.3988 3.93004 26.3852C3.94331 26.3582 3.95659 26.3447 3.98314 26.3177C4.06278 26.2096 4.14243 26.115 4.22207 26.0069L4.2619 25.9529L2.35041 24.899L2.31058 24.9531C2.23094 25.0477 2.15129 25.1557 2.07165 25.2638L1.992 25.3719C1.95218 25.426 1.89908 25.4935 1.85926 25.5476L1.84598 25.5746C1.79289 25.6557 1.72652 25.7502 1.67342 25.8313C1.6336 25.8853 1.59377 25.9394 1.56723 26.0069L1.51413 26.1015L1.50085 26.1285C1.43448 26.2366 1.36811 26.3447 1.31502 26.4528C1.31502 26.4663 1.30174 26.4798 1.28847 26.4933C1.27519 26.5068 1.27519 26.5204 1.26192 26.5339L1.2221 26.6149C1.19555 26.6555 1.18227 26.696 1.15572 26.7365C1.14245 26.75 1.14245 26.7636 1.12918 26.7771C1.10263 26.8311 1.07608 26.8852 1.04953 26.9527C1.03626 26.9797 1.03626 26.9932 1.02298 27.0203C1.00971 27.0473 1.00971 27.0608 0.996434 27.0878C0.956611 27.1689 0.930062 27.25 0.890239 27.331C0.890239 27.3445 0.876965 27.358 0.876965 27.3716C0.863691 27.3986 0.863691 27.4121 0.850417 27.4391C0.810594 27.5607 0.757497 27.6688 0.717675 27.7904V27.8039C0.345996 28.8172 0.160156 29.8846 0.160156 30.9655C0.160156 31.9923 0.345996 33.0057 0.717675 33.9649C1.0628 34.8702 1.60705 35.6808 2.31058 36.3429L4.22207 37.3967C3.53181 36.7347 2.98757 35.9105 2.64244 35.0188C2.25749 34.073 2.07165 33.0462 2.07165 32.0193C2.07165 30.9385 2.27076 29.8711 2.62916 28.8578C2.68226 28.7227 2.73536 28.6011 2.77518 28.4795ZM10.9919 20.0756L10.9521 20.1702C10.9123 20.2918 10.8592 20.4134 10.8061 20.535C10.4344 21.5483 10.2486 22.6157 10.2486 23.6966C10.2486 24.7234 10.4344 25.7367 10.8061 26.696C11.1512 27.6012 11.6955 28.4119 12.3857 29.0739L10.4742 28.0201C9.78398 27.358 9.23973 26.5474 8.88133 25.6421C8.50965 24.6829 8.32381 23.6695 8.32381 22.6427C8.32381 21.5618 8.52293 20.4944 8.88133 19.4811V19.4676C8.92115 19.3865 8.9477 19.3055 8.98752 19.2109C9.0008 19.1839 9.01407 19.1433 9.02735 19.1163C9.04062 19.1028 9.04062 19.0758 9.0539 19.0623C9.06717 19.0488 9.06717 19.0353 9.08044 19.0082C9.12027 18.9272 9.14682 18.8461 9.18664 18.765C9.19991 18.738 9.21318 18.6975 9.22646 18.6705L9.23973 18.6434C9.27956 18.5624 9.30611 18.4948 9.34593 18.4273L9.4123 18.3057C9.4123 18.2921 9.42557 18.2921 9.42557 18.2786L9.43885 18.2651C9.45212 18.2516 9.45212 18.2381 9.4654 18.2246C9.4654 18.2111 9.47867 18.1976 9.49194 18.1841C9.50522 18.1705 9.50522 18.157 9.51849 18.1435C9.58486 18.0219 9.65124 17.9138 9.71761 17.7922L9.73088 17.7787C9.74415 17.7517 9.75743 17.7247 9.78398 17.6977C9.8769 17.549 9.96982 17.4139 10.0627 17.2653L10.076 17.2383C10.1026 17.1978 10.1291 17.1572 10.1689 17.1167L10.1955 17.0897L10.2088 17.0626L10.2884 16.9546C10.368 16.8465 10.4477 16.7519 10.5273 16.6438L10.5672 16.5898L12.4786 17.6436L12.4388 17.6977C12.3592 17.8057 12.2795 17.9003 12.1999 18.0084C12.1866 18.0354 12.1733 18.0489 12.1468 18.076L12.1335 18.0895C12.1335 18.103 12.1202 18.103 12.1202 18.1165C12.0937 18.157 12.0671 18.1841 12.0406 18.2246C12.0141 18.2516 12.0008 18.2921 11.9742 18.3192C11.868 18.4678 11.7884 18.6029 11.6955 18.7515L11.6424 18.8461C11.576 18.9677 11.5096 19.0758 11.4433 19.1974C11.43 19.2244 11.4167 19.2514 11.4034 19.2784C11.3902 19.3055 11.3769 19.3325 11.3636 19.3595L11.2972 19.4811C11.2707 19.5216 11.2574 19.5622 11.2441 19.6027C11.2309 19.6297 11.2176 19.6703 11.191 19.6973L11.138 19.8189C11.0716 19.9135 11.0318 19.9945 10.9919 20.0756ZM19.1689 28.4119L19.1821 28.3984V28.3849V28.3714C19.222 28.2903 19.2485 28.2092 19.2883 28.1282L19.3414 28.0066C19.3547 27.9795 19.368 27.939 19.3945 27.912C19.4078 27.8715 19.4343 27.8309 19.4476 27.7904C19.4742 27.7499 19.4874 27.7093 19.514 27.6688L19.5936 27.5202C19.66 27.3986 19.7264 27.2905 19.7928 27.1689L19.8458 27.0743C19.9388 26.9257 20.0317 26.7906 20.1246 26.642L20.2706 26.4393L20.3503 26.3312C20.4299 26.2231 20.5096 26.1285 20.5892 26.0205L20.629 25.9664L18.7175 24.9125L18.6777 24.9666C18.5981 25.0747 18.5184 25.1693 18.4388 25.2773C18.4255 25.3044 18.4122 25.3179 18.3857 25.3449L18.3724 25.3584C18.3724 25.3719 18.3591 25.3719 18.3591 25.3854C18.3459 25.4125 18.3193 25.4395 18.306 25.4665C18.2795 25.507 18.2529 25.5341 18.2264 25.5746C18.2264 25.5746 18.2264 25.5881 18.2131 25.5881C18.1998 25.5881 18.2131 25.6016 18.1998 25.6016C18.1467 25.6692 18.1069 25.7502 18.0538 25.8178C18.0007 25.8853 17.9609 25.9664 17.9078 26.034C17.8945 26.061 17.8813 26.088 17.8547 26.115L17.8414 26.1285C17.7751 26.2501 17.6954 26.3582 17.6423 26.4798L17.6291 26.4933C17.6158 26.5068 17.6025 26.5339 17.6025 26.5474C17.5892 26.5744 17.576 26.6014 17.5627 26.6284L17.4963 26.75C17.4565 26.8176 17.4299 26.8852 17.3901 26.9662L17.337 27.0878C17.2972 27.1689 17.2706 27.25 17.2308 27.331C17.2176 27.3445 17.2175 27.358 17.2043 27.3851C17.191 27.3986 17.191 27.4121 17.1777 27.4391C17.1645 27.4661 17.1512 27.5067 17.1379 27.5337C17.1114 27.6148 17.0715 27.6958 17.0317 27.7904V27.8039C16.66 28.8172 16.4742 29.8846 16.4742 30.9655C16.4609 31.9923 16.6468 33.0057 17.0317 33.9649C17.3768 34.8702 17.9211 35.6808 18.6113 36.3429L20.5228 37.3967C19.8326 36.7347 19.2883 35.9105 18.9299 35.0188C18.5582 34.0595 18.3591 33.0462 18.3724 32.0193C18.3724 30.9385 18.5715 29.8711 18.9299 28.8578C18.9697 28.7767 18.9963 28.7091 19.0228 28.6281C19.0361 28.5875 19.0627 28.5335 19.0759 28.493C19.1423 28.4659 19.1556 28.4389 19.1689 28.4119ZM27.3591 35.6808L27.3192 35.7889V35.8024L27.306 35.8295L27.2927 35.87C27.2529 35.9646 27.2131 36.0591 27.1865 36.1672C26.8148 37.1806 26.629 38.2479 26.629 39.3288C26.6157 40.3557 26.8148 41.369 27.1865 42.3283C27.5316 43.2335 28.0759 44.0442 28.7794 44.7062L26.8679 43.6523C26.1777 42.9903 25.6334 42.1661 25.275 41.2744C24.9033 40.3151 24.7042 39.3018 24.7175 38.275C24.7175 37.1941 24.9166 36.1267 25.275 35.1134L25.2883 35.0999C25.3281 34.9783 25.3812 34.8702 25.421 34.7486L25.4609 34.6405C25.5007 34.5594 25.5272 34.4784 25.567 34.3973L25.6201 34.2757C25.6467 34.2081 25.6732 34.1541 25.6998 34.1C25.7131 34.0865 25.7131 34.073 25.7263 34.0595L25.7927 33.9379C25.806 33.9109 25.8193 33.8839 25.8325 33.8568L25.8723 33.7893C25.9254 33.6947 25.9785 33.6001 26.0316 33.5056L26.0582 33.465L26.0715 33.438L26.1246 33.3434C26.1644 33.2894 26.2042 33.2353 26.2308 33.1678C26.2839 33.0867 26.3369 32.9921 26.4033 32.9111C26.4033 32.9111 26.4033 32.9111 26.4033 32.8976C26.4033 32.8976 26.4033 32.8841 26.4166 32.8841C26.4431 32.8435 26.4697 32.803 26.4962 32.776C26.5095 32.7489 26.5228 32.7354 26.5493 32.7084L26.629 32.6003C26.7086 32.4922 26.7883 32.3977 26.8679 32.2896L26.9077 32.2355L28.8192 33.2894L28.7794 33.3434C28.6998 33.438 28.6201 33.5461 28.5405 33.6542L28.4608 33.7623C28.4343 33.8028 28.4077 33.8433 28.3812 33.8839C28.3679 33.9109 28.3414 33.9379 28.3281 33.9649C28.2219 34.1136 28.1422 34.2487 28.0493 34.3973L27.9962 34.4919C27.9299 34.6135 27.8635 34.7216 27.7971 34.8432C27.7838 34.8702 27.7706 34.8972 27.744 34.9377C27.7307 34.9648 27.7175 34.9783 27.7042 35.0053C27.6776 35.0458 27.6644 35.0864 27.6378 35.1269C27.6246 35.1674 27.598 35.1944 27.5847 35.235C27.5715 35.2755 27.5449 35.316 27.5316 35.3566C27.5316 35.3701 27.5184 35.3701 27.5184 35.3836C27.5051 35.4106 27.4918 35.4512 27.4785 35.4782C27.4254 35.5187 27.3989 35.5998 27.3591 35.6808ZM35.4962 11.8744L35.536 11.7663C35.5758 11.6853 35.6024 11.6042 35.6422 11.5231L35.6953 11.4015C35.7086 11.3745 35.7218 11.334 35.7484 11.3069C35.7617 11.2664 35.7882 11.2259 35.8015 11.1853C35.8148 11.1583 35.828 11.1178 35.8546 11.0908L35.8679 11.0637L35.9475 10.9151C36.0139 10.7935 36.0802 10.6854 36.1466 10.5638C36.1466 10.5638 36.1466 10.5503 36.1599 10.5503C36.1599 10.5368 36.1732 10.5368 36.1732 10.5233C36.1864 10.4963 36.1997 10.4828 36.213 10.4557C36.3059 10.3071 36.3988 10.172 36.4917 10.0234C36.5183 9.99637 36.5316 9.95584 36.5581 9.92882C36.5847 9.88828 36.6112 9.84775 36.6378 9.82073L36.651 9.80722C36.6776 9.78019 36.6909 9.75317 36.7174 9.72615C36.797 9.61806 36.8767 9.52348 36.9563 9.4154L36.9962 9.36135L35.0847 8.30749L35.0448 8.36153C34.9652 8.45611 34.8856 8.5642 34.8059 8.67229L34.7263 8.78038C34.713 8.79389 34.6997 8.8074 34.6997 8.82091C34.6732 8.86144 34.6333 8.91549 34.6068 8.95602L34.5935 8.98304C34.5404 9.06411 34.4741 9.15869 34.421 9.23975C34.3811 9.2938 34.3413 9.34784 34.3148 9.4154L34.2617 9.50997C34.2484 9.53699 34.2351 9.55051 34.2218 9.57753C34.1687 9.6721 34.1024 9.76668 34.0626 9.86126C34.0626 9.87477 34.0493 9.88828 34.036 9.90179C34.0227 9.9153 34.0227 9.92882 34.0095 9.94233L33.9696 10.0234L33.9033 10.145C33.89 10.172 33.8767 10.1855 33.8767 10.2125C33.8502 10.2666 33.8236 10.3206 33.7971 10.3747C33.7838 10.4017 33.7838 10.4152 33.7705 10.4422C33.7572 10.4693 33.7572 10.4828 33.744 10.5098C33.7174 10.5773 33.6776 10.6449 33.6511 10.726L33.6378 10.7665L33.598 10.8746C33.5581 10.9827 33.505 11.1043 33.4652 11.2259V11.2394C33.0935 12.2527 32.9077 13.3201 32.9077 14.401C32.8944 15.4278 33.0935 16.4411 33.4652 17.4004C33.8103 18.3057 34.3546 19.1163 35.0581 19.7784L36.9696 20.8322C36.2794 20.1702 35.7351 19.346 35.39 18.4543C35.0183 17.495 34.8325 16.4817 34.8325 15.4548C34.8325 14.3739 35.0316 13.3066 35.39 12.2932C35.4033 12.1176 35.4431 11.996 35.4962 11.8744ZM27.3192 20.1567C27.3192 20.1567 27.3192 20.1702 27.306 20.1702C27.2927 20.1972 27.2794 20.2242 27.2794 20.2512C27.2396 20.3458 27.1998 20.4404 27.1732 20.535C26.8015 21.5483 26.6157 22.6157 26.6157 23.6966C26.6024 24.7234 26.8015 25.7367 27.1732 26.696C27.5184 27.6012 28.0626 28.4119 28.7661 29.0739L26.8414 28.0066C26.1511 27.3445 25.6069 26.5204 25.2617 25.6286C24.8901 24.6694 24.6909 23.656 24.7042 22.6292C24.7042 21.5483 24.9033 20.4809 25.2617 19.4676L25.275 19.4541C25.3148 19.3325 25.3679 19.2244 25.4078 19.1028L25.4476 19.0082C25.4874 18.9272 25.5139 18.8461 25.5538 18.765L25.6069 18.6434C25.6334 18.5759 25.66 18.5218 25.6865 18.4678L25.6998 18.4408L25.7131 18.4137L25.7794 18.2921C25.7927 18.2651 25.806 18.2381 25.8193 18.2111L25.8591 18.1435C25.9122 18.0354 25.9785 17.9273 26.0449 17.8193L26.0582 17.7922L26.1113 17.6977C26.1511 17.6436 26.1909 17.5896 26.2175 17.522C26.2706 17.4409 26.3237 17.3464 26.39 17.2653L26.4033 17.2383C26.4299 17.1978 26.4564 17.1572 26.483 17.1302C26.4962 17.1032 26.5095 17.0897 26.5361 17.0626L26.6157 16.9546C26.6954 16.8465 26.775 16.7519 26.8546 16.6438L26.8945 16.5898L28.806 17.6436L28.7661 17.6977C28.6865 17.7922 28.6068 17.9003 28.5272 18.0084L28.4476 18.1165C28.421 18.157 28.3945 18.1976 28.3679 18.2381C28.3546 18.2651 28.3281 18.2921 28.3148 18.3192C28.2086 18.4678 28.129 18.6029 28.0361 18.7515L27.983 18.8461C27.9166 18.9677 27.8502 19.0758 27.7838 19.1974C27.7573 19.2514 27.7175 19.3055 27.7042 19.346C27.6776 19.3865 27.6644 19.4271 27.6378 19.4676C27.6246 19.5081 27.598 19.5352 27.5847 19.5757C27.5715 19.6162 27.5449 19.6568 27.5316 19.6973C27.5316 19.7108 27.5184 19.7108 27.5184 19.7243C27.5184 19.7243 27.5184 19.7378 27.5051 19.7378C27.4918 19.7648 27.4785 19.7919 27.4653 19.8189C27.4254 19.9 27.3989 19.981 27.3591 20.0621C27.3458 20.0756 27.3458 20.1026 27.3325 20.1161C27.3325 20.1432 27.3325 20.1432 27.3192 20.1567ZM35.4962 28.4795C35.5094 28.4659 35.5094 28.4524 35.5227 28.4254C35.536 28.4119 35.536 28.3984 35.5493 28.3714C35.5891 28.2903 35.6156 28.2092 35.6555 28.1282L35.7086 28.0066C35.7218 27.9795 35.7351 27.939 35.7617 27.912C35.7749 27.8715 35.8015 27.8309 35.8148 27.7904L35.8811 27.6688L35.9608 27.5202C36.0271 27.3986 36.0935 27.2905 36.1599 27.1689C36.1599 27.1689 36.1599 27.1554 36.1732 27.1554C36.1864 27.1284 36.1997 27.1013 36.2263 27.0743C36.3192 26.9257 36.4121 26.7906 36.505 26.642L36.651 26.4393L36.6643 26.4258C36.6643 26.4123 36.6776 26.4123 36.6776 26.3988C36.6909 26.3717 36.7041 26.3582 36.7307 26.3312C36.8103 26.2231 36.89 26.1285 36.9696 26.0205L37.0094 25.9664L35.0979 24.9125L35.0581 24.9666C34.9785 25.0747 34.8988 25.1693 34.8192 25.2773L34.7395 25.3854C34.7263 25.3989 34.713 25.426 34.6997 25.4395C34.6732 25.48 34.6333 25.5205 34.6068 25.5611L34.5935 25.5881C34.5404 25.6692 34.4741 25.7637 34.421 25.8448C34.3811 25.8989 34.3413 25.9529 34.3148 26.0205L34.2617 26.115L34.2484 26.1421C34.182 26.2501 34.1157 26.3582 34.0626 26.4663C34.0626 26.4798 34.0493 26.4933 34.0493 26.4933C34.036 26.5068 34.036 26.5204 34.0227 26.5339L33.9829 26.6149C33.9564 26.6555 33.9431 26.696 33.9165 26.7365C33.9033 26.75 33.9033 26.7636 33.89 26.7771C33.8634 26.8311 33.8369 26.8852 33.8103 26.9527C33.7971 26.9797 33.7971 26.9932 33.7838 27.0203C33.7705 27.0473 33.7705 27.0608 33.7572 27.0878C33.7174 27.1689 33.6909 27.25 33.6511 27.331C33.6511 27.3445 33.6378 27.358 33.6378 27.358C33.6378 27.358 33.6378 27.3716 33.6245 27.3716C33.6112 27.3851 33.6112 27.3986 33.598 27.4256C33.5581 27.5472 33.505 27.6553 33.4652 27.7769V27.7904C33.0935 28.8037 32.9077 29.8711 32.9077 30.952C32.8944 31.9788 33.0935 32.9921 33.4652 33.9514C33.8103 34.8567 34.3546 35.6673 35.0581 36.3294L36.9696 37.3832C36.2794 36.7212 35.7351 35.897 35.3767 35.0053C35.005 34.046 34.8192 33.0327 34.8192 32.0058C34.8192 30.925 35.0183 29.8576 35.3767 28.8443C35.4033 28.7227 35.4431 28.6011 35.4962 28.4795ZM43.7262 20.0756L43.6864 20.1702C43.6466 20.2648 43.6067 20.3728 43.5669 20.4674C43.5536 20.4809 43.5536 20.508 43.5404 20.5215C43.1687 21.5348 42.9828 22.6022 42.9828 23.683C42.9696 24.7099 43.1687 25.7232 43.5404 26.6825C43.8855 27.5877 44.4297 28.3984 45.1333 29.0604L43.2218 28.0066C42.5315 27.3445 41.9873 26.5204 41.6421 25.6286C41.2705 24.6694 41.0846 23.656 41.0846 22.6292C41.0846 21.5483 41.2837 20.4809 41.6421 19.4676V19.4541C41.682 19.3325 41.7351 19.2244 41.7749 19.1028C41.7882 19.0893 41.7882 19.0623 41.8014 19.0488C41.8147 19.0352 41.8147 19.0217 41.828 18.9947C41.8678 18.9137 41.8944 18.8326 41.9342 18.7515C41.9474 18.7245 41.9607 18.684 41.974 18.6569C41.974 18.6434 41.9873 18.6299 41.9873 18.6299C42.0271 18.5489 42.0536 18.4813 42.0935 18.4137L42.1067 18.3867C42.12 18.3462 42.1466 18.3057 42.1598 18.2786C42.1731 18.2516 42.1864 18.2246 42.1997 18.1976C42.1997 18.1841 42.2129 18.1705 42.2262 18.157C42.2395 18.1435 42.2395 18.13 42.2528 18.1165C42.3191 17.9949 42.3855 17.8868 42.4519 17.7652L42.4651 17.7517C42.4784 17.7247 42.4917 17.6977 42.5182 17.6706C42.6112 17.522 42.7041 17.3869 42.797 17.2383L42.8103 17.2113C42.8368 17.1707 42.8634 17.1302 42.9032 17.0897C42.9165 17.0762 42.9297 17.0491 42.943 17.0356L43.0227 16.9275C43.1023 16.8194 43.182 16.7249 43.2616 16.6168L43.3014 16.5627L45.2129 17.6166L45.1731 17.6706C45.0934 17.7652 45.0138 17.8733 44.9342 17.9814C44.9209 18.0084 44.9076 18.0219 44.8811 18.0489C44.8678 18.0625 44.8678 18.076 44.8545 18.0895C44.828 18.13 44.8014 18.157 44.7749 18.1976C44.7483 18.2246 44.735 18.2651 44.7085 18.2921C44.6023 18.4408 44.5227 18.5759 44.4297 18.7245L44.3766 18.8191C44.3103 18.9407 44.2439 19.0488 44.1775 19.1704C44.151 19.2244 44.1244 19.2784 44.0979 19.319L44.0315 19.4406C44.005 19.4811 43.9917 19.5216 43.9784 19.5622C43.9651 19.5892 43.9519 19.6297 43.9253 19.6568L43.8722 19.7784C43.7926 19.9135 43.7527 19.9945 43.7262 20.0756Z" fill="url(#paint2_linear_1602_15013)"/>
<path d="M79.3885 30.6506H77.2313L68.5742 17.053V30.6506H66.417V13.5468H68.5742L77.2313 27.1149V13.5468H79.3885V30.6506ZM84.157 15.0348C83.7455 15.0348 83.4048 14.8874 83.121 14.5928C82.8372 14.2982 82.6952 13.9446 82.6952 13.5174C82.6952 13.0902 82.8372 12.7366 83.121 12.442C83.4048 12.1473 83.7455 12 84.157 12C84.5544 12 84.8808 12.1473 85.1505 12.442C85.4343 12.7366 85.5762 13.0902 85.5762 13.5174C85.5762 13.9446 85.4343 14.2982 85.1505 14.5928C84.8808 14.8874 84.5544 15.0348 84.157 15.0348ZM85.2072 17.2151V30.6358H83.05V17.2151H85.2072V17.2151ZM91.0118 12.5156V30.6506H88.8546V12.5156H91.0118ZM106.509 23.4172C106.509 23.8444 106.481 24.2864 106.438 24.7578H96.0783C96.1635 26.0837 96.5892 27.1149 97.384 27.8662C98.1929 28.6028 99.158 28.9711 100.293 28.9711C101.23 28.9711 101.996 28.7501 102.607 28.3082C103.231 27.8515 103.685 27.2475 103.927 26.4962H106.24C105.899 27.7926 105.204 28.8385 104.154 29.6635C103.118 30.459 101.826 30.8568 100.279 30.8568C99.0445 30.8568 97.9517 30.5769 96.9724 30.0024C96.0074 29.4278 95.2552 28.6176 94.7017 27.5716C94.1482 26.5109 93.8786 25.2882 93.8786 23.9034C93.8786 22.5186 94.1482 21.2958 94.6875 20.2499C95.2268 19.2039 95.979 18.4084 96.9298 17.8486C97.9091 17.274 99.0303 16.9941 100.293 16.9941C101.528 16.9941 102.607 17.274 103.558 17.8338C104.508 18.3936 105.232 19.1597 105.729 20.132C106.24 21.1043 106.509 22.1945 106.509 23.4172ZM104.281 22.9458C104.281 22.0913 104.097 21.3695 103.742 20.7655C103.373 20.1467 102.876 19.6753 102.252 19.3659C101.642 19.0418 100.946 18.8798 100.194 18.8798C99.1012 18.8798 98.1787 19.2334 97.3982 19.9552C96.646 20.6771 96.2061 21.6641 96.0925 22.9458H104.281ZM114.84 22.0913C114.84 20.4266 115.209 18.924 115.933 17.6128C116.657 16.2722 117.636 15.2263 118.885 14.475C120.148 13.7236 121.539 13.3406 123.072 13.3406C124.874 13.3406 126.435 13.7826 127.769 14.6812C129.103 15.5798 130.082 16.8468 130.707 18.4968H128.124C127.67 17.4655 127.003 16.67 126.137 16.1249C125.285 15.5651 124.264 15.2852 123.057 15.2852C121.908 15.2852 120.872 15.5651 119.963 16.1249C119.055 16.6847 118.331 17.4655 117.806 18.4968C117.281 19.5133 117.026 20.7065 117.026 22.0766C117.026 23.4319 117.281 24.6252 117.806 25.6565C118.331 26.673 119.041 27.4537 119.963 28.0136C120.872 28.5734 121.908 28.8533 123.057 28.8533C124.249 28.8533 125.285 28.5881 126.137 28.043C127.003 27.4832 127.67 26.7024 128.124 25.6712H130.707C130.097 27.3064 129.117 28.5734 127.769 29.472C126.435 30.3559 124.86 30.7979 123.072 30.7979C121.539 30.7979 120.148 30.4296 118.885 29.693C117.636 28.9417 116.657 27.9104 115.933 26.5846C115.209 25.2587 114.84 23.756 114.84 22.0913ZM133.105 23.8886C133.105 22.5186 133.375 21.3105 133.914 20.294C134.454 19.2481 135.177 18.4378 136.114 17.8633C137.065 17.2887 138.101 17.0088 139.265 17.0088C140.4 17.0088 141.379 17.2593 142.217 17.7749C143.054 18.2905 143.678 18.924 144.09 19.69V17.2445H146.261V30.6653H144.09V28.1609C143.664 28.9417 143.026 29.6046 142.174 30.1202C141.337 30.6211 140.357 30.8863 139.236 30.8863C138.087 30.8863 137.051 30.5916 136.114 30.0024C135.177 29.4131 134.454 28.5881 133.914 27.5274C133.375 26.452 133.105 25.244 133.105 23.8886ZM144.076 23.9034C144.076 22.8869 143.877 22.0029 143.48 21.2516C143.082 20.5003 142.543 19.9258 141.876 19.5427C141.209 19.1302 140.485 18.924 139.676 18.924C138.867 18.924 138.143 19.1155 137.476 19.5133C136.809 19.911 136.284 20.4708 135.887 21.2222C135.49 21.9735 135.291 22.8574 135.291 23.8739C135.291 24.9051 135.49 25.8038 135.887 26.5698C136.284 27.3212 136.809 27.8957 137.476 28.3082C138.143 28.706 138.867 28.8975 139.676 28.8975C140.485 28.8975 141.209 28.706 141.876 28.3082C142.557 27.8957 143.096 27.3212 143.48 26.5698C143.877 25.8038 144.076 24.9199 144.076 23.9034ZM152.037 19.69C152.463 18.924 153.088 18.2905 153.925 17.7749C154.777 17.2593 155.756 16.9941 156.877 16.9941C158.026 16.9941 159.063 17.274 159.999 17.8486C160.95 18.4231 161.688 19.2334 162.227 20.2793C162.767 21.3105 163.036 22.5038 163.036 23.8739C163.036 25.2292 162.767 26.4372 162.227 27.4979C161.688 28.5586 160.95 29.3836 159.999 29.9729C159.063 30.5622 158.026 30.8568 156.877 30.8568C155.77 30.8568 154.791 30.6064 153.939 30.0907C153.102 29.5751 152.463 28.9269 152.023 28.1609V37H149.866V17.2151H152.023V19.69H152.037ZM160.822 23.8886C160.822 22.8721 160.624 21.9882 160.226 21.2369C159.829 20.4856 159.29 19.911 158.623 19.528C157.956 19.1302 157.232 18.9387 156.423 18.9387C155.628 18.9387 154.904 19.145 154.223 19.5575C153.556 19.9552 153.031 20.5298 152.619 21.2958C152.222 22.0471 152.023 22.9163 152.023 23.9181C152.023 24.9346 152.222 25.8185 152.619 26.5846C153.031 27.3359 153.57 27.9104 154.223 28.3229C154.904 28.7207 155.628 28.9122 156.423 28.9122C157.232 28.9122 157.956 28.7207 158.623 28.3229C159.304 27.9104 159.843 27.3359 160.226 26.5846C160.638 25.8038 160.822 24.9051 160.822 23.8886ZM166.967 15.0348C166.556 15.0348 166.215 14.8874 165.931 14.5928C165.648 14.2982 165.506 13.9446 165.506 13.5174C165.506 13.0902 165.648 12.7366 165.931 12.442C166.215 12.1473 166.556 12 166.967 12C167.365 12 167.691 12.1473 167.961 12.442C168.245 12.7366 168.387 13.0902 168.387 13.5174C168.387 13.9446 168.245 14.2982 167.961 14.5928C167.691 14.8874 167.365 15.0348 166.967 15.0348ZM168.003 17.2151V30.6358H165.86V17.2151H168.003V17.2151ZM174.305 19.0566V26.9676C174.305 27.6158 174.432 28.0872 174.702 28.3671C174.972 28.6323 175.44 28.7649 176.093 28.7649H177.682V30.6506H175.738C174.546 30.6506 173.638 30.3707 173.042 29.7961C172.446 29.2216 172.148 28.2787 172.148 26.9823V19.0566H170.473V17.2151H172.148V13.8268H174.305V17.2151H177.682V19.0566H174.305ZM179.485 23.8886C179.485 22.5186 179.754 21.3105 180.294 20.294C180.833 19.2481 181.557 18.4378 182.494 17.8633C183.444 17.2887 184.48 17.0088 185.644 17.0088C186.78 17.0088 187.759 17.2593 188.596 17.7749C189.433 18.2905 190.058 18.924 190.469 19.69V17.2445H192.641V30.6653H190.469V28.1609C190.044 28.9417 189.405 29.6046 188.554 30.1202C187.716 30.6211 186.737 30.8863 185.616 30.8863C184.466 30.8863 183.43 30.5916 182.494 30.0024C181.557 29.4131 180.833 28.5881 180.294 27.5274C179.754 26.452 179.485 25.244 179.485 23.8886ZM190.455 23.9034C190.455 22.8869 190.257 22.0029 189.859 21.2516C189.462 20.5003 188.923 19.9258 188.256 19.5427C187.588 19.1302 186.865 18.924 186.056 18.924C185.247 18.924 184.523 19.1155 183.856 19.5133C183.189 19.911 182.664 20.4708 182.266 21.2222C181.869 21.9735 181.67 22.8574 181.67 23.8739C181.67 24.9051 181.869 25.8038 182.266 26.5698C182.664 27.3212 183.189 27.8957 183.856 28.3082C184.523 28.706 185.247 28.8975 186.056 28.8975C186.865 28.8975 187.588 28.706 188.256 28.3082C188.937 27.8957 189.476 27.3212 189.859 26.5698C190.257 25.8038 190.455 24.9199 190.455 23.9034ZM198.417 12.5156V30.6506H196.26V12.5156H198.417Z" fill="white"/>
<defs>
<linearGradient id="paint0_linear_1602_15013" x1="26.3004" y1="-0.297888" x2="26.3004" y2="44.8162" gradientUnits="userSpaceOnUse">
<stop stop-color="#D3D3D3"/>
<stop offset="0.2924" stop-color="#6C4DAC"/>
<stop offset="0.636" stop-color="#394D98"/>
<stop offset="1" stop-color="#0C3939"/>
</linearGradient>
<linearGradient id="paint1_linear_1602_15013" x1="26.2907" y1="-0.0875258" x2="26.2907" y2="44.5384" gradientUnits="userSpaceOnUse">
<stop stop-color="#E6E6E6"/>
<stop offset="0.2924" stop-color="#9670E2"/>
<stop offset="0.636" stop-color="#4E66BE"/>
<stop offset="1" stop-color="#155556"/>
</linearGradient>
<linearGradient id="paint2_linear_1602_15013" x1="22.6717" y1="-0.0151817" x2="22.6717" y2="44.6918" gradientUnits="userSpaceOnUse">
<stop stop-color="white"/>
<stop offset="0.2924" stop-color="#AC83FF"/>
<stop offset="0.636" stop-color="#5E7AE0"/>
<stop offset="1" stop-color="#269A9B"/>
</linearGradient>
</defs>
</svg>
