<svg version="1.1"
    xmlns="http://www.w3.org/2000/svg"
    xmlns:xlink="http://www.w3.org/1999/xlink">
    <defs>
        <symbol id="icon-facebook" width="100%" height="100%" viewBox="0 0 24 24"
            xmlns="http://www.w3.org/2000/svg">
            <path d="M13.397 20.9972V12.8012H16.162L16.573 9.59217H13.397V7.54817C13.397 6.62217 13.655 5.98817 14.984 5.98817H16.668V3.12717C15.8487 3.03936 15.0251 2.99696 14.201 3.00017C11.757 3.00017 10.079 4.49217 10.079 7.23117V9.58617H7.33203V12.7952H10.085V20.9972H13.397Z"/>
        </symbol>

        <symbol id="icon-twitter" width="100%" height="100%" viewBox="0 0 24 24"
            xmlns="http://www.w3.org/2000/svg">
            <path d="M23.643 4.93708C22.808 5.30708 21.911 5.55708 20.968 5.67008C21.941 5.08787 22.669 4.17154 23.016 3.09208C22.1019 3.63507 21.1014 4.01727 20.058 4.22208C19.3564 3.47294 18.4271 2.9764 17.4143 2.80955C16.4016 2.6427 15.3621 2.81487 14.4572 3.29933C13.5524 3.78379 12.8328 4.55344 12.4102 5.48878C11.9875 6.42412 11.8855 7.47283 12.12 8.47208C10.2677 8.37907 8.45564 7.89763 6.80144 7.05898C5.14723 6.22034 3.68785 5.04324 2.51801 3.60408C2.11801 4.29408 1.88801 5.09408 1.88801 5.94608C1.88757 6.71307 2.07644 7.46832 2.43789 8.14481C2.79934 8.8213 3.32217 9.39812 3.96001 9.82408C3.22029 9.80054 2.49688 9.60066 1.85001 9.24108V9.30108C1.84994 10.3768 2.22204 11.4195 2.90319 12.2521C3.58434 13.0847 4.53258 13.656 5.58701 13.8691C4.9008 14.0548 4.18135 14.0821 3.48301 13.9491C3.78051 14.8747 4.36001 15.6841 5.14038 16.264C5.92075 16.8439 6.86293 17.1653 7.83501 17.1831C6.18485 18.4785 4.1469 19.1812 2.04901 19.1781C1.67739 19.1782 1.30609 19.1565 0.937012 19.1131C3.06649 20.4823 5.54535 21.2089 8.07701 21.2061C16.647 21.2061 21.332 14.1081 21.332 7.95208C21.332 7.75208 21.327 7.55008 21.318 7.35008C22.2293 6.69105 23.0159 5.87497 23.641 4.94008L23.643 4.93708V4.93708Z"/>
        </symbol>

        <symbol id="icon-linkedin" width="100%" height="100%" viewBox="0 0 24 24">
            <path fill-rule="evenodd" clip-rule="evenodd" d="M1 2.838C1 2.35053 1.19365 1.88303 1.53834 1.53834C1.88303 1.19365 2.35053 1 2.838 1H21.16C21.4016 0.999608 21.6409 1.04687 21.8641 1.13907C22.0874 1.23127 22.2903 1.36661 22.4612 1.53734C22.6322 1.70807 22.7677 1.91083 22.8602 2.13401C22.9526 2.3572 23.0001 2.59643 23 2.838V21.16C23.0003 21.4016 22.9529 21.6409 22.8606 21.8642C22.7683 22.0875 22.6328 22.2904 22.462 22.4613C22.2912 22.6322 22.0884 22.7678 21.8651 22.8602C21.6419 22.9526 21.4026 23.0001 21.161 23H2.838C2.59655 23 2.35746 22.9524 2.1344 22.86C1.91134 22.7676 1.70867 22.6321 1.53798 22.4613C1.3673 22.2905 1.23193 22.0878 1.13962 21.8647C1.04731 21.6416 0.999869 21.4025 1 21.161V2.838ZM9.708 9.388H12.687V10.884C13.117 10.024 14.217 9.25 15.87 9.25C19.039 9.25 19.79 10.963 19.79 14.106V19.928H16.583V14.822C16.583 13.032 16.153 12.022 15.061 12.022C13.546 12.022 12.916 13.111 12.916 14.822V19.928H9.708V9.388ZM4.208 19.791H7.416V9.25H4.208V19.79V19.791ZM7.875 5.812C7.88105 6.08667 7.83217 6.35979 7.73124 6.61532C7.63031 6.87084 7.47935 7.10364 7.28723 7.30003C7.09511 7.49643 6.8657 7.65248 6.61246 7.75901C6.35921 7.86554 6.08724 7.92042 5.8125 7.92042C5.53776 7.92042 5.26579 7.86554 5.01255 7.75901C4.7593 7.65248 4.52989 7.49643 4.33777 7.30003C4.14565 7.10364 3.99469 6.87084 3.89376 6.61532C3.79283 6.35979 3.74395 6.08667 3.75 5.812C3.76187 5.27286 3.98439 4.75979 4.36989 4.38269C4.75539 4.00558 5.27322 3.79442 5.8125 3.79442C6.35178 3.79442 6.86961 4.00558 7.25512 4.38269C7.64062 4.75979 7.86313 5.27286 7.875 5.812V5.812Z"/>
        </symbol>

        <symbol id="icon-reddit" width="100%" height="100%" viewBox="0 0 24 24"
            xmlns="http://www.w3.org/2000/svg">
            <path d="M6.75 13.3125C6.75 13.6606 6.88828 13.9944 7.13442 14.2406C7.38056 14.4867 7.7144 14.625 8.0625 14.625C8.4106 14.625 8.74444 14.4867 8.99058 14.2406C9.23672 13.9944 9.375 13.6606 9.375 13.3125C9.375 12.9644 9.23672 12.6306 8.99058 12.3844C8.74444 12.1383 8.4106 12 8.0625 12C7.7144 12 7.38056 12.1383 7.13442 12.3844C6.88828 12.6306 6.75 12.9644 6.75 13.3125ZM14.6883 16.118C14.1469 16.5445 13.0734 17.0039 12 17.0039C10.9266 17.0039 9.85312 16.5445 9.31172 16.118C8.97422 15.8531 8.48438 15.9094 8.21719 16.2469C7.95 16.5844 8.00859 17.0742 8.34609 17.3414C9.28828 18.0844 10.7227 18.5625 12 18.5625C13.2773 18.5625 14.7117 18.0844 15.6539 17.3414C15.8161 17.2134 15.9209 17.0261 15.945 16.8208C15.9692 16.6156 15.9109 16.4091 15.7828 16.2469C15.6548 16.0846 15.4675 15.9799 15.2622 15.9557C15.057 15.9316 14.8505 15.9899 14.6883 16.118ZM22.5 10.6875C22.5 9.23672 21.3258 8.0625 19.875 8.0625C18.8883 8.0625 18.0305 8.60625 17.5805 9.4125C16.2305 8.67422 14.5875 8.19844 12.7969 8.08828L14.3648 4.57031L17.3625 5.43516C17.632 6.19922 18.3609 6.75 19.2188 6.75C20.3062 6.75 21.1875 5.86875 21.1875 4.78125C21.1875 3.69375 20.3062 2.8125 19.2188 2.8125C18.4688 2.8125 17.8172 3.23203 17.4844 3.84844L14.1445 2.88281C13.9638 2.83033 13.7702 2.84509 13.5996 2.92438C13.429 3.00367 13.2928 3.14211 13.2164 3.31406L11.0883 8.09297C9.34219 8.21484 7.73906 8.68828 6.41953 9.41016C6.19198 9.00133 5.85925 8.66079 5.4558 8.42384C5.05236 8.18688 4.59288 8.06213 4.125 8.0625C2.67422 8.0625 1.5 9.23672 1.5 10.6875C1.5 11.7609 2.14453 12.682 3.06563 13.0898C2.89922 13.582 2.8125 14.0977 2.8125 14.625C2.8125 18.2484 6.92578 21.1875 12 21.1875C17.0742 21.1875 21.1875 18.2484 21.1875 14.625C21.1875 14.0953 21.0984 13.582 20.9344 13.0898C21.8555 12.682 22.5 11.7609 22.5 10.6875ZM19.2188 4.04297C19.3157 4.04297 19.4117 4.06207 19.5013 4.09917C19.5908 4.13627 19.6722 4.19065 19.7408 4.25921C19.8093 4.32776 19.8637 4.40915 19.9008 4.49872C19.9379 4.58829 19.957 4.6843 19.957 4.78125C19.957 4.8782 19.9379 4.97421 19.9008 5.06378C19.8637 5.15335 19.8093 5.23474 19.7408 5.30329C19.6722 5.37185 19.5908 5.42623 19.5013 5.46333C19.4117 5.50044 19.3157 5.51953 19.2188 5.51953C19.0229 5.51953 18.8352 5.44175 18.6967 5.30329C18.5583 5.16484 18.4805 4.97705 18.4805 4.78125C18.4805 4.58545 18.5583 4.39766 18.6967 4.25921C18.8352 4.12075 19.0229 4.04297 19.2188 4.04297ZM2.8125 10.6875C2.8125 9.96328 3.40078 9.375 4.125 9.375C4.37364 9.37519 4.61711 9.44601 4.82706 9.5792C5.03702 9.7124 5.20482 9.90249 5.31094 10.1273C4.62422 10.6477 4.05703 11.2477 3.63516 11.9062C3.39246 11.8078 3.18458 11.6393 3.03806 11.4223C2.89153 11.2052 2.81301 10.9494 2.8125 10.6875ZM12 19.6289C7.78594 19.6289 4.37109 17.3883 4.37109 14.625C4.37109 11.8617 7.78594 9.62109 12 9.62109C16.2141 9.62109 19.6289 11.8617 19.6289 14.625C19.6289 17.3883 16.2141 19.6289 12 19.6289ZM20.3625 11.9062C19.943 11.2477 19.3734 10.6477 18.6867 10.1273C18.8977 9.68438 19.35 9.375 19.8727 9.375C20.5969 9.375 21.1852 9.96328 21.1852 10.6875C21.1875 11.2383 20.8453 11.7117 20.3625 11.9062ZM14.625 13.3125C14.625 13.6606 14.7633 13.9944 15.0094 14.2406C15.2556 14.4867 15.5894 14.625 15.9375 14.625C16.2856 14.625 16.6194 14.4867 16.8656 14.2406C17.1117 13.9944 17.25 13.6606 17.25 13.3125C17.25 12.9644 17.1117 12.6306 16.8656 12.3844C16.6194 12.1383 16.2856 12 15.9375 12C15.5894 12 15.2556 12.1383 15.0094 12.3844C14.7633 12.6306 14.625 12.9644 14.625 13.3125Z"/>
        </symbol>

        <symbol id="icon-youtube" viewBox="0 0 24 24"
            xmlns="http://www.w3.org/2000/svg">
            <path d="M23.4996 6.50708C23.3637 6.02231 23.099 5.58342 22.7336 5.23708C22.3579 4.88008 21.8974 4.62471 21.3956 4.49508C19.5176 4.00008 11.9936 4.00008 11.9936 4.00008C8.85697 3.96439 5.72107 4.12135 2.60364 4.47008C2.10183 4.60929 1.6422 4.87036 1.26564 5.23008C0.895641 5.58608 0.627641 6.02508 0.487641 6.50608C0.151334 8.31782 -0.0120674 10.1574 -0.000359379 12.0001C-0.0123594 13.8411 0.150641 15.6801 0.487641 17.4941C0.624641 17.9731 0.891641 18.4101 1.26264 18.7631C1.63364 19.1161 2.09564 19.3711 2.60364 19.5061C4.50664 20.0001 11.9936 20.0001 11.9936 20.0001C15.1343 20.0358 18.2742 19.8789 21.3956 19.5301C21.8974 19.4004 22.3579 19.1451 22.7336 18.7881C23.1036 18.4351 23.3666 17.9961 23.4986 17.5181C23.8437 15.707 24.0115 13.8667 23.9996 12.0231C24.0256 10.1717 23.858 8.32264 23.4996 6.50608V6.50708ZM9.60164 15.4241V8.57708L15.8616 12.0011L9.60164 15.4241Z"/>
        </symbol>

        <symbol id="icon-telegram" width="100%" height="100%" viewBox="0 0 24 24"
            xmlns="http://www.w3.org/2000/svg">
            <path d="M20.6646 3.71682L2.93461 10.5538C1.72461 11.0398 1.73161 11.7148 2.71261 12.0158L7.26461 13.4358L17.7966 6.79082C18.2946 6.48782 18.7496 6.65082 18.3756 6.98282L9.84261 14.6838H9.84061L9.84261 14.6848L9.52861 19.3768C9.98861 19.3768 10.1916 19.1658 10.4496 18.9168L12.6606 16.7668L17.2596 20.1638C18.1076 20.6308 18.7166 20.3908 18.9276 19.3788L21.9466 5.15082C22.2556 3.91182 21.4736 3.35082 20.6646 3.71682Z"/>
        </symbol>

        <symbol id="icon-loadmore" width="100%" height="100%" viewBox="0 0 28 27"
            xmlns="http://www.w3.org/2000/svg">
            <path d="M15.3332 0.166016H12.6665V8.16602H15.3332V0.166016ZM15.3332 18.8327H12.6665V26.8327H15.3332V18.8327ZM27.3332 12.166V14.8327H19.3332V12.166H27.3332ZM8.6665 14.8327V12.166H0.666504V14.8327H8.6665ZM17.9998 6.83268H20.6665V9.49935H17.9998V6.83268ZM23.3332 4.16602H20.6665V6.83268H23.3332V4.16602ZM9.99984 6.83268H7.33317V9.49935H9.99984V6.83268ZM4.6665 4.16602H7.33317V6.83268H4.6665V4.16602ZM17.9998 20.166H20.6665V22.8327H23.3332V20.166H20.6665V17.4993H17.9998V20.166ZM7.33317 20.166V17.4993H9.99984V20.166H7.33317V22.8327H4.6665V20.166H7.33317Z" />
        </symbol>

        <symbol id="icon-arrow" width="100%" height="100%" viewBox="0 0 26 19"
            xmlns="http://www.w3.org/2000/svg">
            <path fill-rule="evenodd" clip-rule="evenodd" d="M22.8809 9.5L16.6326 2.96034L17.8945 1.63966L25.4046 9.5L17.8945 17.3603L16.6326 16.0397L22.8809 9.5Z" fill="white"/>
            <rect y="8.59961" width="24.1429" height="1.8" fill="white"/>
        </symbol>
    </defs>
</svg>