<svg id="Layer_1" data-name="Layer 1" xmlns="http://www.w3.org/2000/svg" xmlns:xlink="http://www.w3.org/1999/xlink" viewBox="0 0 1580 510"><defs><style>.cls-1{fill:#131215;}.cls-2{fill:url(#linear-gradient);}.cls-3{fill:#fff;}</style><linearGradient id="linear-gradient" x1="90.63" y1="255" x2="469.14" y2="255" gradientUnits="userSpaceOnUse"><stop offset="0" stop-color="#30c9cb"/><stop offset="1" stop-color="#a377ff"/></linearGradient></defs><rect class="cls-1" x="1.55" y="-0.8" width="1576.89" height="511.61"/><path class="cls-2" d="M424.53,303.32a62.95,62.95,0,0,1,0-89.08l44.61,44.54Zm-126.19,0a62.92,62.92,0,0,1,0-89.08L343,258.78Zm0,118.41a62.9,62.9,0,0,1,0-89.07L343,377.19Zm0-244.38a62.91,62.91,0,0,1,0-89.08L343,132.81Zm63.1,63a62.92,62.92,0,0,1,0-89.08L406,195.79Zm0,126a62.9,62.9,0,0,1,0-89.07L406,321.76Zm-189.26-63a62.95,62.95,0,0,1,0-89.08l44.61,44.54Zm-63.07-63a62.92,62.92,0,0,1,0-89.08l44.6,44.54Zm0,126a62.9,62.9,0,0,1,0-89.07l44.6,44.53Zm126.15-126a62.95,62.95,0,0,1,0-89.08l44.61,44.54Zm0,126a62.93,62.93,0,0,1,0-89.07l44.61,44.53Z"/><path class="cls-3" d="M650.65,316.66H635.49l-61-92.3v92.3H559.37V200.58h15.16l61,92.13V200.58h15.16Zm33.67-105.94a10.31,10.31,0,1,1,0-20.62,9.27,9.27,0,0,1,7,3,10.43,10.43,0,0,1,0,14.64A9.27,9.27,0,0,1,684.32,210.72Zm7.33,14.8v91.14H676.49V225.52Zm41-31.93V316.66H717.48V193.59Zm109.12,74a87.2,87.2,0,0,1-.5,9.15h-73q.84,13.47,9.17,21.12A29.9,29.9,0,0,0,798,305.35q9.84,0,16.33-4.49a24.52,24.52,0,0,0,9.33-12.31h16.32A39.59,39.59,0,0,1,825.27,310q-11,8.14-27.32,8.15a46.68,46.68,0,0,1-23.32-5.82,41.56,41.56,0,0,1-16-16.47q-5.82-10.8-5.83-24.94t5.67-24.78a39.29,39.29,0,0,1,15.82-16.3A47.35,47.35,0,0,1,798,224a45.85,45.85,0,0,1,23,5.65,38.56,38.56,0,0,1,15.33,15.63A44.88,44.88,0,0,1,841.76,267.6Zm-15.66-3.16a27.38,27.38,0,0,0-3.83-14.8,24,24,0,0,0-10.49-9.48,31.29,31.29,0,0,0-14.49-3.33,28.43,28.43,0,0,0-19.66,7.32q-8,7.32-9.16,20.29Zm74.42-5.82a60.45,60.45,0,0,1,7.66-30.44A55.66,55.66,0,0,1,929,206.9a58.14,58.14,0,0,1,29.48-7.65q19,0,33.15,9.14t20.66,26H994.13a36.14,36.14,0,0,0-14-16.13q-9-5.66-21.66-5.66a42.4,42.4,0,0,0-21.82,5.66,39.39,39.39,0,0,0-15.16,16.13Q916,244.65,916,258.62q0,13.8,5.49,24.28a39.78,39.78,0,0,0,15.16,16,42.39,42.39,0,0,0,21.82,5.65q12.66,0,21.66-5.49a36.24,36.24,0,0,0,14-16.13h18.16a52.5,52.5,0,0,1-20.66,25.78q-14.16,9-33.15,9A59.15,59.15,0,0,1,929,310.17a56,56,0,0,1-20.82-21.12A60.42,60.42,0,0,1,900.52,258.62Zm128.67,12.14q0-14,5.66-24.45a41.16,41.16,0,0,1,15.49-16.46A43.22,43.22,0,0,1,1072.5,224q12,0,20.82,5.15a34.46,34.46,0,0,1,13.16,13V225.52h15.32v91.14h-15.32v-17A36.15,36.15,0,0,1,1093,313a40.17,40.17,0,0,1-20.65,5.16,41.44,41.44,0,0,1-22-6,42,42,0,0,1-15.49-16.8A52.16,52.16,0,0,1,1029.19,270.76Zm77.29.17a37,37,0,0,0-4.17-18A28.57,28.57,0,0,0,1091,241.32a29.74,29.74,0,0,0-15.49-4.16,30.74,30.74,0,0,0-15.49,4,29,29,0,0,0-11.16,11.64,37.05,37.05,0,0,0-4.16,18,38.42,38.42,0,0,0,4.16,18.29A30.21,30.21,0,0,0,1060,300.86a32.06,32.06,0,0,0,31,0,29.71,29.71,0,0,0,11.33-11.81A37.92,37.92,0,0,0,1106.48,270.93Zm56.09-28.61a35.69,35.69,0,0,1,13.33-13,40.11,40.11,0,0,1,20.82-5.32,42.33,42.33,0,0,1,22,5.82,40.82,40.82,0,0,1,15.66,16.46q5.66,10.49,5.66,24.45a52.28,52.28,0,0,1-5.66,24.61,41.79,41.79,0,0,1-37.65,22.79,40.74,40.74,0,0,1-20.65-5.16,38.36,38.36,0,0,1-13.5-13.14v60h-15.15V225.52h15.15Zm62,28.44a36.94,36.94,0,0,0-4.17-18,28.61,28.61,0,0,0-11.32-11.64,30.74,30.74,0,0,0-15.49-4,30.37,30.37,0,0,0-15.5,4.16,29.87,29.87,0,0,0-11.32,11.81,36.6,36.6,0,0,0-4.17,17.8,37.92,37.92,0,0,0,4.17,18.12,29.55,29.55,0,0,0,26.82,15.8,30.74,30.74,0,0,0,15.49-4,29.76,29.76,0,0,0,11.32-11.81A38.3,38.3,0,0,0,1224.54,270.76Zm43.27-60a10.31,10.31,0,1,1,0-20.62,9.27,9.27,0,0,1,7,3,10.46,10.46,0,0,1,0,14.64A9.27,9.27,0,0,1,1267.81,210.72Zm7.33,14.8v91.14H1260V225.52ZM1319.46,238v53.71q0,6.66,2.83,9.48t9.83,2.66h11.16v12.81h-13.66q-12.66,0-19-5.82t-6.33-19.13V238h-11.82V225.52h11.82v-23h15.16v23h23.82V238ZM1356,270.76q0-14,5.67-24.45a41.1,41.1,0,0,1,15.49-16.46,43.21,43.21,0,0,1,22.15-5.82q12,0,20.82,5.15a34.32,34.32,0,0,1,13.16,13V225.52h15.33v91.14h-15.33v-17a36,36,0,0,1-13.49,13.3,40.17,40.17,0,0,1-20.65,5.16,41.44,41.44,0,0,1-22-6,42,42,0,0,1-15.49-16.8A52.17,52.17,0,0,1,1356,270.76Zm77.29.17a37,37,0,0,0-4.16-18,28.64,28.64,0,0,0-11.33-11.64,29.74,29.74,0,0,0-15.49-4.16,30.72,30.72,0,0,0-15.49,4,29,29,0,0,0-11.16,11.64,36.94,36.94,0,0,0-4.16,18,38.3,38.3,0,0,0,4.16,18.29,30.21,30.21,0,0,0,11.16,11.81,32.06,32.06,0,0,0,31,0,29.78,29.78,0,0,0,11.33-11.81A37.91,37.91,0,0,0,1433.27,270.93Zm56.1-77.34V316.66h-15.16V193.59Z"/></svg>